<svg width="15" height="17" fill="none" xmlns="http://www.w3.org/2000/svg"><path fill-rule="evenodd" clip-rule="evenodd" d="M13.371 12.289l-2.02.734a.263.263 0 01-.333-.155l-1.046-2.832h-4.9l-1.045 2.827a.264.264 0 01-.332.155l-2.016-.734a.248.248 0 01-.162-.32l4.078-10.7a2.098 2.098 0 013.07-.913c.341.223.61.54.775.913l4.093 10.707a.25.25 0 01-.074.27.262.262 0 01-.088.048zm-5.53-8.325l-.32-.9v-.006L5.676 8.02h3.691L7.841 3.963zM1.517 15.02h12.032a.982.982 0 01.954.985.987.987 0 01-.954.985H1.517a.982.982 0 01-.954-.985.987.987 0 01.954-.984z" fill="#FC0018"/></svg>