<svg width="49" height="63" fill="none" xmlns="http://www.w3.org/2000/svg"><path d="M14.429 7.778H7.714c-1.78 0-3.488.714-4.747 1.985A6.81 6.81 0 001 14.556v40.666a6.81 6.81 0 001.967 4.793A6.683 6.683 0 007.714 62h33.572c1.78 0 3.488-.714 4.747-1.985A6.81 6.81 0 0048 55.222V14.556a6.81 6.81 0 00-1.967-4.793 6.682 6.682 0 00-4.747-1.985H34.57m-20.142 0a6.81 6.81 0 011.966-4.793A6.683 6.683 0 0121.143 1h6.714c1.78 0 3.489.714 4.748 1.985a6.81 6.81 0 011.966 4.793m-20.142 0a6.81 6.81 0 001.966 4.792 6.683 6.683 0 004.748 1.986h6.714c1.78 0 3.489-.714 4.748-1.986a6.81 6.81 0 001.966-4.792m-20.142 30.5h.033m-.033 10.166h.033M24.5 45.056l3.357 3.388L37.93 38.278" stroke="#4C4C4C" stroke-width="2" stroke-linecap="round" stroke-linejoin="round"/></svg>