<svg width="60" height="64" fill="none" xmlns="http://www.w3.org/2000/svg"><path d="M11.875 59.556V49.222a3.36 3.36 0 00-1.062-2.435 3.724 3.724 0 00-2.563-1.01H4.625c-.961 0-1.883.364-2.563 1.01A3.36 3.36 0 001 49.222v10.334c0 .913.382 1.79 1.062 2.435A3.724 3.724 0 004.625 63H8.25c.961 0 1.883-.363 2.563-1.009a3.36 3.36 0 001.062-2.435zm0 0c0 .913.382 1.79 1.062 2.435A3.724 3.724 0 0015.5 63h13.616c.78 0 1.538-.239 2.164-.681a3.45 3.45 0 001.308-1.775l4.35-10.333c.326-1.044.482-2.17-.203-3.045-.681-.875-1.965-1.388-3.11-1.388h-7.25V37.28c0-.813-.276-1.604-.786-2.256a3.991 3.991 0 00-2.046-1.368 4.186 4.186 0 00-2.501.06 3.964 3.964 0 00-1.971 1.463l-7.196 10.599v13.778zM40.875 1v13.778c0 .913.382 1.79 1.062 2.435a3.724 3.724 0 002.563 1.01H59M40.875 1H15.5c-1.923 0-3.767.726-5.127 2.018C9.014 4.31 8.25 6.062 8.25 7.888v24.456M40.875 1L59 18.222m0 0v37.89c0 1.826-.764 3.578-2.123 4.87C55.517 62.274 53.672 63 51.75 63h-8.337" stroke="#4C4C4C" stroke-width="2" stroke-linecap="round" stroke-linejoin="round"/></svg>