<svg width="55" height="64" fill="none" xmlns="http://www.w3.org/2000/svg"><path d="M1 59.737V53.21c0-3.462 1.396-6.782 3.88-9.23a13.352 13.352 0 019.37-3.823h1.656M7.625 14.053c0 3.461 1.396 6.781 3.88 9.23a13.352 13.352 0 009.37 3.822c3.513 0 6.883-1.375 9.368-3.823a12.955 12.955 0 003.88-9.23c0-3.461-1.395-6.781-3.88-9.229A13.351 13.351 0 0020.874 1a13.352 13.352 0 00-9.369 3.823 12.955 12.955 0 00-3.88 9.23zM40.749 63l11.096-10.716a6.99 6.99 0 001.592-2.289 6.903 6.903 0 00.009-5.439 6.99 6.99 0 00-1.584-2.293 7.485 7.485 0 00-5.179-2.086 7.486 7.486 0 00-5.186 2.066l-.742.718-.739-.718a7.485 7.485 0 00-5.176-2.084 7.486 7.486 0 00-5.185 2.065 6.99 6.99 0 00-1.592 2.288 6.905 6.905 0 00-.011 5.438 6.99 6.99 0 001.584 2.295L40.748 63z" stroke="#4C4C4C" stroke-width="2" stroke-linecap="round" stroke-linejoin="round"/></svg>