<svg width="97" height="114" fill="none" xmlns="http://www.w3.org/2000/svg"><path d="M12.875 88.111c3.15 0 6.17 1.311 8.397 3.645 2.227 2.334 3.478 5.5 3.478 8.8 0 3.3-1.251 6.465-3.478 8.799-2.227 2.334-5.248 3.645-8.397 3.645-3.15 0-6.17-1.311-8.397-3.645C2.251 107.021 1 103.856 1 100.556s1.251-6.466 3.478-8.8c2.227-2.334 5.248-3.645 8.397-3.645zm0 0h65.313m-65.313 0V1H1m77.188 87.111c3.149 0 6.17 1.311 8.396 3.645 2.227 2.334 3.478 5.5 3.478 8.8 0 3.3-1.25 6.465-3.478 8.799-2.227 2.334-5.247 3.645-8.397 3.645-3.149 0-6.17-1.311-8.396-3.645-2.227-2.334-3.478-5.499-3.478-8.799s1.25-6.466 3.478-8.8c2.227-2.334 5.247-3.645 8.397-3.645zM12.874 13.444L96 19.667l-5.938 43.555H12.876" stroke="#4C4C4C" stroke-width="1.8" stroke-linecap="round" stroke-linejoin="round"/></svg>