<svg width="202" height="202" fill="none" xmlns="http://www.w3.org/2000/svg"><path d="M101.067 47.854l1.131-10.439 2.476.268-.42 3.87 4.116.446.42-3.87 2.475.269-1.131 10.438-2.476-.268.467-4.31-4.115-.446-.467 4.31-2.476-.268zm16.372 3.26a5.943 5.943 0 01-1.965-1.142 5.51 5.51 0 01-1.282-1.694 5.298 5.298 0 01-.522-2.035 5.615 5.615 0 01.34-2.173 5.603 5.603 0 011.12-1.901 5.271 5.271 0 011.695-1.242 5.404 5.404 0 012.063-.487 5.943 5.943 0 012.243.365 5.81 5.81 0 011.962 1.149c.546.493.972 1.06 1.279 1.7.307.642.478 1.322.512 2.04a5.398 5.398 0 01-.325 2.154 5.501 5.501 0 01-1.124 1.892 5.183 5.183 0 01-1.688 1.244 5.504 5.504 0 01-2.065.495 5.905 5.905 0 01-2.243-.365zm.789-2.203a3.16 3.16 0 001.196.197 2.733 2.733 0 002.029-.994c.272-.317.489-.699.649-1.146.216-.602.281-1.169.194-1.699a2.678 2.678 0 00-.636-1.383 3.012 3.012 0 00-1.316-.885 3.101 3.101 0 00-1.198-.19 2.73 2.73 0 00-1.109.271c-.342.17-.649.41-.92.722a3.534 3.534 0 00-.649 1.146c-.215.598-.279 1.162-.192 1.692.086.53.297.993.633 1.39.343.393.782.686 1.319.879zm6.533 4.866l5.637-8.859 3.429 2.182c.903.575 1.504 1.224 1.802 1.947.301.719.216 1.45-.257 2.192a2.02 2.02 0 01-.639.642 2.415 2.415 0 01-.836.322 2.752 2.752 0 01-.892.019c.369.472.574.996.616 1.574.045.58-.103 1.14-.447 1.68-.336.528-.76.9-1.272 1.12-.509.221-1.074.286-1.696.192-.622-.094-1.266-.352-1.933-.776l-3.512-2.235zm3.087-.214l1.108.705c.455.29.856.414 1.202.374.346-.04.637-.247.873-.618.226-.354.29-.698.195-1.032-.089-.335-.349-.64-.779-.913l-1.177-.75-1.422 2.234zm2.34-3.676l1.044.664c.253.161.497.257.732.288a1.1 1.1 0 00.657-.097 1.25 1.25 0 00.519-.479c.206-.325.256-.646.15-.962-.103-.314-.356-.6-.761-.858l-1.013-.644-1.328 2.088zm2.852 8.998l10.181-4.688 2.049 2.035-4.587 10.241-1.99-1.976.973-2.035-2.672-2.652-2.017.999-1.937-1.924zm5.817-.153l1.863 1.849 1.621-3.506-3.484 1.657zm2.812 8.765l5.109.055c-.183-.715-.175-1.375.023-1.98.202-.6.6-1.094 1.197-1.48.613-.395 1.216-.59 1.811-.581.595.008 1.162.198 1.7.57.543.37 1.034.895 1.474 1.575l2.232 3.452-8.818 5.701-1.352-2.09 3.244-2.098-.517-.8-4.555.07-1.548-2.394zm7.473.768l.822 1.273 2.179-1.41-.802-1.24c-.277-.428-.582-.71-.914-.847-.328-.14-.681-.087-1.059.158-.378.244-.581.542-.609.894-.025.35.103.74.383 1.172zm2.567 20.41l4.199-5.448 5.865 2.426.778 3.006-5.875-2.493-4.165 5.61-.802-3.1zm-1.618-6.251l10.165-2.63.624 2.41-3.768.975.496 1.917-2.2.57-.496-1.918-4.197 1.087-.624-2.411zm2.711 16.366a5.93 5.93 0 01.369-2.243 5.511 5.511 0 011.128-1.8 5.28 5.28 0 011.717-1.21 5.598 5.598 0 012.152-.454 5.614 5.614 0 012.175.37c.67.267 1.257.649 1.762 1.144a5.39 5.39 0 011.189 1.755c.288.68.44 1.422.456 2.227a5.82 5.82 0 01-.377 2.242 5.446 5.446 0 01-1.135 1.8 5.26 5.26 0 01-1.725 1.203 5.417 5.417 0 01-2.129.462 5.496 5.496 0 01-2.168-.379 5.175 5.175 0 01-1.762-1.136 5.49 5.49 0 01-1.197-1.755 5.891 5.891 0 01-.455-2.226zm2.339-.045c.009.435.089.83.241 1.188a2.737 2.737 0 001.65 1.543c.393.143.827.209 1.302.2.639-.012 1.192-.153 1.657-.422.465-.264.82-.626 1.066-1.086a3.01 3.01 0 00.361-1.544 3.12 3.12 0 00-.248-1.188 2.723 2.723 0 00-.649-.94 2.959 2.959 0 00-1.001-.604 3.55 3.55 0 00-1.302-.2c-.635.013-1.185.153-1.65.422a2.802 2.802 0 00-1.074 1.086c-.246.46-.364.975-.353 1.545zm-2.353 7.864l2.393-.307c.031.35.085.654.162.911.081.263.212.494.394.693.186.199.451.38.795.542.342.167.788.326 1.339.477.554.157 1.241.325 2.062.504l3.048.667-1.69 7.73-10.257-2.243.531-2.432 8.038 1.757.655-2.997-.718-.157a32.373 32.373 0 01-2.718-.702c-.763-.233-1.403-.488-1.921-.765s-.93-.59-1.238-.938a3.208 3.208 0 01-.667-1.198 5.212 5.212 0 01-.208-1.542zm-2.626 11.448l2.4.238a4.662 4.662 0 00-.046.923c.02.275.096.53.229.764.137.236.355.471.653.706.296.24.696.494 1.198.765a36.47 36.47 0 001.897.954l2.821 1.332-3.378 7.155-9.495-4.483 1.063-2.252 7.44 3.513 1.31-2.774-.665-.314a32.767 32.767 0 01-2.491-1.292c-.691-.399-1.258-.791-1.701-1.176-.442-.386-.775-.784-.996-1.193a3.19 3.19 0 01-.382-1.316c-.035-.465.012-.981.143-1.55zm-5.179 10.845l8.376 6.33-4.449 5.888-1.723-1.302 2.948-3.902-1.556-1.175-2.473 3.273-1.592-1.203 2.474-3.273-1.766-1.334-2.984 3.949-1.741-1.316 4.486-5.935zM134.1 141.017l6.75 1.323.45 6.33-2.342 2.039-.394-6.369-6.879-1.22 2.415-2.103zm4.87-4.24l6.895 7.919-1.878 1.635-2.556-2.936-1.493 1.3-1.493-1.714 1.494-1.3-2.847-3.269 1.878-1.635zm-8.898 7.632l4.901 9.286-2.203 1.162-3.84-7.276-3.529 1.862 3.841 7.277-2.202 1.162-4.901-9.286 7.933-4.187zm-8.575 1.54l1.232 2.335.763-.402 1.06 2.009-2.852 1.506-2.293-4.345 2.09-1.103zm-2.741 4.26l2.514 10.194-2.395.591-1.572-6.372-2.557 7.39-2.403.593-2.515-10.194 2.396-.591 1.591 6.451 2.552-7.473 2.389-.589zm-11.534 2.783l-2.738 4.313c.705.222 1.262.576 1.671 1.063.405.488.614 1.086.627 1.796.014.73-.139 1.346-.459 1.847-.32.501-.781.883-1.381 1.144-.6.267-1.305.408-2.114.424l-4.11.079-.202-10.498 2.489-.048.075 3.862.952-.019 2.34-3.908 2.85-.055zm-4.589 5.947l-1.515.029.05 2.595 1.478-.029c.509-.01.91-.12 1.201-.331.291-.205.432-.533.423-.983-.008-.45-.155-.78-.439-.989-.284-.205-.683-.302-1.198-.292zm-19.213-8.676l-2.54 7.825 3.047.989.226-.699c.37-1.142.753-2.108 1.147-2.901.392-.787.815-1.417 1.268-1.89.447-.47.945-.8 1.496-.99.55-.189 1.173-.252 1.867-.19l.16 2.252c-.443-.044-.826-.013-1.15.092-.327.104-.625.317-.893.641-.273.321-.538.782-.796 1.382-.264.602-.55 1.38-.859 2.331l-.928 2.86-7.654-2.484 3.24-9.987 2.37.769zm8.141-.134l-1.47 4.53-1.317-.483-.805-.048-9.231-2.996 1.516-4.672 2.248.729-.815 2.511 6.812 2.211.815-2.511 2.247.729zm-13.347-1.894l-.485 2.363a4.666 4.666 0 00-.914-.142 1.795 1.795 0 00-.782.149c-.25.112-.506.304-.77.577-.27.27-.564.641-.885 1.113a35.01 35.01 0 00-1.145 1.788l-1.616 2.668-6.768-4.099 5.44-8.981 2.13 1.29-4.263 7.037 2.624 1.59.38-.629a32.45 32.45 0 011.544-2.345c.467-.646.916-1.17 1.345-1.57.43-.4.86-.69 1.289-.868a3.22 3.22 0 011.349-.244c.466.013.974.114 1.527.303zm-9.658-5.609l-4.979 1.146c.346.652.493 1.296.442 1.93-.055.631-.327 1.204-.816 1.718-.503.529-1.044.86-1.624.991-.58.132-1.176.08-1.787-.156-.614-.232-1.215-.627-1.802-1.185l-2.98-2.831 7.234-7.611 1.805 1.715-2.66 2.8.69.656 4.411-1.136 2.066 1.963zm-7.444 1.007l-1.098-1.044-1.788 1.881 1.071 1.018c.37.351.732.554 1.087.609.352.058.683-.076.993-.402.31-.326.437-.664.383-1.012-.059-.346-.274-.696-.648-1.05zm-4.254-13.653l-9.118 5.207-3.187-5.582 1.973-1.127 1.953 3.419 7.144-4.079 1.235 2.162zm-5.82-12.539c.245.767.342 1.518.289 2.255a5.504 5.504 0 01-.565 2.047 5.272 5.272 0 01-1.298 1.652 5.585 5.585 0 01-1.93 1.052 5.616 5.616 0 01-2.19.269 5.28 5.28 0 01-2.017-.591 5.414 5.414 0 01-1.642-1.34 5.948 5.948 0 01-1.075-2.003 5.81 5.81 0 01-.282-2.256 5.46 5.46 0 01.572-2.05 5.248 5.248 0 011.307-1.647 5.412 5.412 0 011.908-1.053 5.53 5.53 0 012.185-.259 5.181 5.181 0 012.014.584c.625.33 1.175.776 1.65 1.338a5.922 5.922 0 011.074 2.002zm-2.229.714a3.169 3.169 0 00-.57-1.069 2.735 2.735 0 00-2.024-1.006 3.584 3.584 0 00-1.304.182c-.61.195-1.099.488-1.467.879-.37.387-.606.835-.71 1.346a3.02 3.02 0 00.097 1.584c.131.409.324.765.578 1.067.25.303.547.541.89.714.344.169.721.266 1.134.291.412.026.847-.035 1.304-.181.605-.194 1.091-.487 1.46-.878.368-.391.607-.84.717-1.348a3.091 3.091 0 00-.105-1.581zm-.345-13.059c.092 1.081-.048 2.054-.421 2.919a4.809 4.809 0 01-1.719 2.095c-.773.533-1.712.846-2.818.94-.807.069-1.556-.003-2.246-.215a5.174 5.174 0 01-1.84-1.003 5.21 5.21 0 01-1.277-1.66 5.983 5.983 0 01-.592-2.185c-.075-.872-.027-1.614.142-2.225a5.37 5.37 0 01.797-1.687l2.146 1.067a2.684 2.684 0 00-.576 1.103 3.926 3.926 0 00-.11 1.372c.042.488.151.918.328 1.289a2.7 2.7 0 00.688.92 2.63 2.63 0 001.008.524c.386.108.81.142 1.274.103.637-.055 1.172-.225 1.605-.513a2.59 2.59 0 00.953-1.173c.2-.488.272-1.059.216-1.712a4.77 4.77 0 00-.327-1.372 4.197 4.197 0 00-.807-1.256l1.988-1.313a5.945 5.945 0 011.052 1.657c.281.653.46 1.428.536 2.325zm-.343-8.164l-8.172-.95-.323 2.78-2.258-.263.935-8.045 2.257.262-.323 2.779 8.173.949-.289 2.488zm.909-8.001l-9.924-3.429.806-2.332 6.203 2.143-4.814-6.162.808-2.34 9.924 3.43-.806 2.331-6.28-2.17 4.887 6.204-.803 2.325zm4.366-12.013l-8.859-5.636 1.337-2.1 3.284 2.089 2.223-3.493-3.285-2.09 1.337-2.1 8.859 5.636-1.337 2.1-3.657-2.326-2.223 3.492 3.658 2.328-1.337 2.1zm9.956-13.041a5.944 5.944 0 01-1.886 1.268 5.506 5.506 0 01-2.083.412c-.707 0-1.394-.14-2.059-.42a5.597 5.597 0 01-1.805-1.256 5.618 5.618 0 01-1.221-1.837 5.277 5.277 0 01-.375-2.068 5.404 5.404 0 01.462-2.068 5.944 5.944 0 011.31-1.858 5.814 5.814 0 011.89-1.263 5.442 5.442 0 012.09-.407c.71.004 1.396.148 2.058.431a5.41 5.41 0 011.795 1.234 5.509 5.509 0 011.21 1.838 5.15 5.15 0 01.38 2.062 5.502 5.502 0 01-.457 2.074 5.907 5.907 0 01-1.309 1.858zm-1.636-1.673c.31-.304.544-.634.7-.99a2.735 2.735 0 00-.007-2.259 3.59 3.59 0 00-.747-1.085c-.447-.457-.928-.763-1.443-.917a2.688 2.688 0 00-1.522-.033 3.03 3.03 0 00-1.371.797c-.308.3-.54.632-.695.995-.16.359-.24.73-.24 1.116.002.382.085.763.247 1.143.162.38.41.742.746 1.085.444.454.924.758 1.438.912a2.805 2.805 0 001.527.038 3.09 3.09 0 001.367-.802zm7.17-3.872l-5.34-9.04 2.124-1.256 3.337 5.65.324-7.812 2.13-1.26 5.341 9.041-2.124 1.255-3.38-5.721-.294 7.892-2.118 1.251zm-1.917-12.283c-.538.318-1.067.494-1.587.528-.522.03-1-.07-1.433-.303-.429-.234-.78-.593-1.054-1.076l1.718-1.015c.168.325.394.534.676.629.284.088.575.044.872-.132.297-.175.473-.407.53-.696.053-.293-.02-.593-.218-.9l1.717-1.014c.286.464.425.945.418 1.444-.007.49-.15.96-.433 1.405-.279.443-.68.82-1.206 1.13z" opacity=".6" fill="#000"/><circle cx="88.5" cy="43.688" r="3.5" fill="#E31E24"/></svg>