<svg width="13" height="14" fill="none" xmlns="http://www.w3.org/2000/svg"><path fill-rule="evenodd" clip-rule="evenodd" d="M5.98 1.003A3.375 3.375 0 018.378 0c.9 0 1.762.36 2.398 1.003a3.44 3.44 0 01.993 2.42 3.44 3.44 0 01-.993 2.42l-4.552 4.595a1.897 1.897 0 01-2.695 0 1.933 1.933 0 010-2.72l4.552-4.595a.417.417 0 01.594 0 .427.427 0 010 .6L4.123 8.317a1.08 1.08 0 000 1.521 1.06 1.06 0 001.507 0l4.552-4.594a2.587 2.587 0 00.747-1.821c0-.683-.269-1.338-.747-1.82A2.539 2.539 0 008.378.847a2.54 2.54 0 00-1.804.754L2.023 6.197A4.094 4.094 0 00.84 9.077c0 1.081.426 2.117 1.183 2.882a4.017 4.017 0 002.854 1.193c1.07 0 2.097-.43 2.854-1.193l4.552-4.595a.417.417 0 01.594 0 .427.427 0 010 .6l-4.552 4.594A4.854 4.854 0 014.877 14a4.854 4.854 0 01-3.449-1.442A4.946 4.946 0 010 9.078C0 7.772.514 6.52 1.428 5.597L5.98 1.003z" fill="#000"/></svg>