<svg width="64" height="64" fill="none" xmlns="http://www.w3.org/2000/svg"><path d="M8.718 56.947H1V36.199a3.859 3.859 0 013.859-3.859m3.859 24.607V36.199a3.859 3.859 0 00-3.86-3.859m3.86 24.607H36.73M4.86 32.34v-7.455a6.964 6.964 0 016.964-6.964h21.803a6.964 6.964 0 016.963 6.964v7.455m-3.86 24.607h7.718V36.199a3.859 3.859 0 00-3.859-3.859M36.73 56.947V36.199a3.859 3.859 0 013.86-3.859m14.217-20.1V63M8.718 49.229H36.73M8.718 41.51c9.438-5.557 18.575-5.557 28.012 0M4.86 56.947V63m35.73-6.053V63m7.097 0H61.93M63 12.239H46.616L49.19 1h11.238L63 12.239z" stroke="#E31E24" stroke-width="2" stroke-miterlimit="10" stroke-linecap="round" stroke-linejoin="round"/></svg>