<svg width="62" height="62" fill="none" xmlns="http://www.w3.org/2000/svg"><path d="M59.578 34.148c0 3.344-4.337 6.055-9.687 6.055s-9.688-2.71-9.688-6.055c0-3.343 4.337-6.054 9.688-6.054 5.35 0 9.687 2.71 9.687 6.054zm-.118 22.524c-5.35 3.875-14.024 3.875-19.374 0m19.374-9.688c-5.35 3.875-14.024 3.875-19.374 0m2.461-27.488a12.109 12.109 0 00-3.105-5.321L31.3 5.969c-4.73-4.73-12.396-4.73-17.126 0L5.97 14.174a12.11 12.11 0 00-3.547 8.563V47.47c0 6.688 5.421 12.11 12.11 12.11H30.88" stroke="#E31E24" stroke-width="2" stroke-miterlimit="10" stroke-linecap="round" stroke-linejoin="round"/><path d="M25.797 19.496a3.027 3.027 0 11-6.055 0 3.027 3.027 0 016.055 0z" fill="#E31E24"/></svg>