<svg width="25" height="25" fill="none" xmlns="http://www.w3.org/2000/svg"><path stroke="#E31E24" d="M.5.5h24v24H.5z"/><path d="M7.375 13.403c.1 0 .195.038.265.105.07.068.11.16.11.255v1.798c0 .191.079.374.22.509.14.135.331.21.53.21h9c.199 0 .39-.075.53-.21a.705.705 0 00.22-.509v-1.798c0-.096.04-.187.11-.255a.384.384 0 01.53 0c.07.068.11.16.11.255v1.798c0 .382-.158.748-.44 1.018-.28.27-.662.421-1.06.421h-9c-.398 0-.78-.152-1.06-.421A1.41 1.41 0 017 15.56v-1.798c0-.096.04-.187.11-.255a.383.383 0 01.265-.105z" fill="#E31E24"/><path d="M12.735 14.809a.375.375 0 00.265.105.387.387 0 00.265-.105l2.25-2.159a.353.353 0 00.11-.254.353.353 0 00-.11-.255.384.384 0 00-.53 0l-1.61 1.545V7.36a.352.352 0 00-.11-.255.383.383 0 00-.53 0 .352.352 0 00-.11.255v6.326l-1.61-1.545a.384.384 0 00-.53 0 .353.353 0 00-.11.255c0 .095.04.187.11.254l2.25 2.159z" fill="#E31E24"/></svg>