<svg width="48" height="51" fill="none" xmlns="http://www.w3.org/2000/svg"><path d="M22.906 3.936L12.272 26.05m0 0L2.248 35.822a4.08 4.08 0 000 5.873l3.011 2.936c1.664 1.622 4.36 1.622 6.024 0l10.024-9.773L43.988 24.49m-31.716 1.56l17.25 16.818a4.09 4.09 0 011.293 2.98c0 2.293-1.907 4.152-4.26 4.152a4.3 4.3 0 01-3.055-1.26l-8.216-8.01M47 27.427L19.894 1m22.771 10.455L47 9.305M36.276 5.226L38.481 1" stroke="#4C4C4C" stroke-width="2" stroke-miterlimit="10" stroke-linecap="round" stroke-linejoin="round"/></svg>