<svg width="61" height="43" fill="none" xmlns="http://www.w3.org/2000/svg"><path d="M30.5 21.5c3.53 0 6.392-2.84 6.392-6.345S34.03 8.809 30.5 8.809c-3.53 0-6.392 2.841-6.392 6.346 0 3.504 2.862 6.345 6.392 6.345zm0 0c7.06 0 12.783 5.681 12.783 12.69M30.5 21.5c-7.06 0-12.783 5.681-12.783 12.69m38.35 0V4.905a3.888 3.888 0 00-1.152-2.76A3.945 3.945 0 0052.133 1H8.867a3.944 3.944 0 00-2.781 1.144 3.889 3.889 0 00-1.153 2.76v29.287m31.467 0a3.371 3.371 0 01-2.374.976h-7.052a3.37 3.37 0 01-2.374-.977H1v3.905c0 1.036.414 2.029 1.152 2.76A3.945 3.945 0 004.933 42h51.134a3.944 3.944 0 002.78-1.144A3.888 3.888 0 0060 38.096V34.19H36.4z" stroke="#4C4C4C" stroke-width="2" stroke-miterlimit="10" stroke-linecap="round" stroke-linejoin="round"/></svg>