<svg width="51" height="51" fill="none" xmlns="http://www.w3.org/2000/svg"><path d="M29.668 50H50V9.336M29.668 50V9.336m0 40.664H1V25.602M29.668 50V25.602m0 24.398h-8.133V31.701h8.133m0 18.299V31.701m0-22.365H50m-20.332 0v16.266M50 9.336v16.266H29.668m0 0H1m28.668 0v6.1M1 25.601v6.1h28.668M16.25 8.115l7.116 6.1v4.066H1v-4.066l7.116-6.1m8.133 0H8.116m8.133 0V1H8.116v7.116m27.652 11.386v-3.05m0 15.25v3.049m-20.332 4.575v3.05" stroke="#4C4C4C" stroke-width="2" stroke-miterlimit="10" stroke-linecap="round" stroke-linejoin="round"/></svg>