<svg width="131" height="114" fill="none" xmlns="http://www.w3.org/2000/svg"><path d="M119.282 61.041L65.56 113 11.837 61.041A34.942 34.942 0 013.64 49.154a34.251 34.251 0 01-2.628-14.1A34.303 34.303 0 014.396 21.11a35.064 35.064 0 018.828-11.45 36.052 36.052 0 0112.788-7.03 36.631 36.631 0 0114.602-1.432 36.42 36.42 0 0113.964 4.408 35.557 35.557 0 0110.982 9.507 35.568 35.568 0 0110.995-9.425 36.425 36.425 0 0113.938-4.345 36.627 36.627 0 0114.554 1.461 36.051 36.051 0 0112.742 7.023 35.068 35.068 0 018.802 11.413 34.314 34.314 0 013.395 13.897c.14 4.812-.739 9.6-2.58 14.064a34.94 34.94 0 01-8.124 11.883" stroke="#4C4C4C" stroke-width="1.8" stroke-linecap="round" stroke-linejoin="round"/></svg>