<svg width="180" height="54" fill="none" xmlns="http://www.w3.org/2000/svg"><g clip-path="url(#clip0_498_10373)"><path d="M173.327 53.333H6.667C3 53.333 0 50.333 0 46.667v-40C0 3.001 3 .001 6.667.001h166.66c3.666 0 6.666 3 6.666 6.666v40c0 3.666-3 6.666-6.666 6.666z" fill="#100F0D"/><path d="M173.327.001H6.667C3 .001 0 3.001 0 6.667v40c0 3.666 3 6.666 6.667 6.666h166.66c3.666 0 6.666-3 6.666-6.666v-40c0-3.666-3-6.666-6.666-6.666zm0 1.066a5.606 5.606 0 015.599 5.6v40c0 3.087-2.511 5.6-5.599 5.6H6.667a5.606 5.606 0 01-5.6-5.6v-40c0-3.087 2.512-5.6 5.6-5.6h166.66z" fill="#A2A2A1"/><path d="M142.575 40h2.488V23.33h-2.488V40zm22.409-10.664l-2.852 7.226h-.085l-2.96-7.226h-2.68l4.44 10.1-2.532 5.618h2.595l6.841-15.718h-2.767zm-14.11 8.77c-.813 0-1.95-.407-1.95-1.415 0-1.287 1.416-1.78 2.637-1.78 1.093 0 1.609.236 2.273.557a3.016 3.016 0 01-2.96 2.638zm.302-9.135c-1.802 0-3.667.794-4.439 2.552l2.208.922c.472-.922 1.351-1.222 2.273-1.222 1.287 0 2.595.772 2.616 2.145v.17c-.45-.256-1.416-.642-2.594-.642-2.382 0-4.804 1.307-4.804 3.752 0 2.23 1.952 3.667 4.138 3.667 1.672 0 2.596-.75 3.174-1.63h.086v1.287h2.403v-6.39c0-2.96-2.211-4.61-5.061-4.61zM135.8 31.365h-3.539v-5.713h3.539c1.86 0 2.916 1.54 2.916 2.856 0 1.292-1.056 2.857-2.916 2.857zm-.064-8.034h-5.962v16.67h2.487v-6.316h3.475c2.757 0 5.468-1.996 5.468-5.176s-2.711-5.178-5.468-5.178zM103.229 38.11c-1.719 0-3.158-1.44-3.158-3.415 0-1.998 1.439-3.458 3.158-3.458 1.697 0 3.028 1.46 3.028 3.458 0 1.976-1.331 3.415-3.028 3.415zm2.856-7.84h-.086c-.558-.666-1.632-1.267-2.985-1.267-2.836 0-5.435 2.492-5.435 5.692 0 3.179 2.599 5.649 5.435 5.649 1.353 0 2.427-.602 2.985-1.289h.086v.816c0 2.17-1.159 3.33-3.028 3.33-1.525 0-2.47-1.096-2.857-2.02l-2.17.903c.623 1.503 2.277 3.35 5.027 3.35 2.922 0 5.392-1.718 5.392-5.907v-10.18h-2.364v.923zm4.083 9.73h2.49V23.33h-2.49V40zm6.164-5.498c-.065-2.192 1.697-3.308 2.964-3.308.989 0 1.825.494 2.106 1.202l-5.07 2.105zm7.732-1.891c-.472-1.267-1.911-3.608-4.854-3.608-2.922 0-5.349 2.298-5.349 5.67 0 3.18 2.406 5.671 5.628 5.671 2.599 0 4.103-1.589 4.726-2.513l-1.933-1.289c-.645.945-1.525 1.568-2.793 1.568-1.267 0-2.169-.58-2.749-1.718l7.582-3.136-.258-.645zm-60.409-1.868v2.405h5.757c-.172 1.354-.623 2.342-1.31 3.029-.839.837-2.15 1.761-4.447 1.761-3.544 0-6.315-2.856-6.315-6.4 0-3.545 2.77-6.402 6.315-6.402 1.912 0 3.308.752 4.339 1.719l1.697-1.697c-1.44-1.375-3.35-2.427-6.036-2.427-4.855 0-8.936 3.952-8.936 8.806 0 4.855 4.08 8.807 8.936 8.807 2.62 0 4.597-.86 6.143-2.47 1.59-1.59 2.084-3.823 2.084-5.628 0-.558-.044-1.073-.13-1.503h-8.097zm14.772 7.367c-1.719 0-3.2-1.418-3.2-3.437 0-2.04 1.481-3.436 3.2-3.436 1.718 0 3.2 1.396 3.2 3.436 0 2.02-1.482 3.437-3.2 3.437zm0-9.107c-3.137 0-5.693 2.384-5.693 5.67 0 3.265 2.556 5.671 5.693 5.671 3.136 0 5.692-2.406 5.692-5.67 0-3.287-2.556-5.671-5.692-5.671zm12.417 9.107c-1.718 0-3.2-1.418-3.2-3.437 0-2.04 1.483-3.436 3.2-3.436 1.719 0 3.2 1.396 3.2 3.436 0 2.02-1.481 3.437-3.2 3.437zm0-9.107c-3.136 0-5.691 2.384-5.691 5.67 0 3.265 2.555 5.671 5.691 5.671 3.137 0 5.693-2.406 5.693-5.67 0-3.287-2.556-5.671-5.693-5.671z" fill="#fff"/><path d="M27.624 25.9L13.43 40.964l.002.009a3.833 3.833 0 005.648 2.313l.045-.027 15.978-9.22-7.48-8.14z" fill="#EB3131"/><path d="M41.98 23.334l-.013-.01-6.898-3.998-7.772 6.915 7.799 7.798 6.861-3.96a3.836 3.836 0 00.023-6.745z" fill="#F6B60B"/><path d="M13.427 12.37c-.085.315-.13.644-.13.987V39.98c0 .341.044.672.13.986l14.685-14.681L13.427 12.37z" fill="#5778C5"/><path d="M27.722 26.668l7.347-7.345-15.96-9.254a3.843 3.843 0 00-5.687 2.297v.004l14.3 14.298z" fill="#3BAD49"/><path d="M63.199 13.042h-3.89v.963h2.915c-.08.785-.392 1.402-.919 1.85-.527.448-1.2.673-1.996.673-.873 0-1.612-.305-2.218-.909-.594-.616-.896-1.379-.896-2.298 0-.918.302-1.68.896-2.297.606-.604 1.345-.907 2.218-.907.448 0 .875.077 1.267.246.392.169.706.404.952.707l.74-.74a3.329 3.329 0 00-1.288-.886 4.396 4.396 0 00-1.67-.314c-1.165 0-2.153.404-2.959 1.21-.806.809-1.21 1.805-1.21 2.982 0 1.177.404 2.175 1.21 2.98.806.807 1.794 1.211 2.958 1.211 1.223 0 2.198-.392 2.948-1.187.66-.663.998-1.559.998-2.68 0-.189-.023-.391-.056-.604zm1.507-3.733v8.025h4.685v-.986h-3.654v-2.545h3.296v-.963h-3.296v-2.543h3.654v-.988h-4.685zm11.255.988v-.988h-5.515v.988h2.242v7.037h1.031v-7.037h2.242zm4.992-.988h-1.031v8.025h1.031V9.309zm6.807.988v-.988h-5.515v.988h2.242v7.037h1.031v-7.037h2.242zm10.406.056c-.796-.819-1.771-1.223-2.936-1.223-1.166 0-2.141.404-2.937 1.21-.796.796-1.188 1.794-1.188 2.981 0 1.188.392 2.186 1.188 2.982.796.806 1.77 1.21 2.937 1.21 1.154 0 2.14-.404 2.936-1.21.796-.796 1.187-1.794 1.187-2.982 0-1.177-.391-2.172-1.187-2.968zm-5.133.67c.593-.604 1.322-.906 2.197-.906.873 0 1.602.302 2.186.907.593.593.885 1.368.885 2.297 0 .932-.292 1.704-.885 2.298-.584.604-1.313.909-2.186.909-.875 0-1.604-.305-2.198-.909-.58-.606-.872-1.366-.872-2.298 0-.929.291-1.691.873-2.297zm8.77 1.313l-.044-1.548h.044l4.079 6.546h1.077V9.309h-1.031v4.696l.044 1.548h-.044l-3.9-6.244h-1.256v8.025h1.031v-4.998z" fill="#fff" stroke="#fff" stroke-width=".267" stroke-miterlimit="10"/></g><defs><clipPath id="clip0_498_10373"><path fill="#fff" d="M0 0h180v53.333H0z"/></clipPath></defs></svg>