<svg width="37" height="51" fill="none" xmlns="http://www.w3.org/2000/svg"><path d="M27.578 43.9H9.422m18.156 0v-6.1m0 6.1l-4.54 6.1h-9.077l-4.539-6.1m0 0v-6.1m12.104 0l2.238-15.674c.02-.143.031-.29.031-.438 0-1.685-1.354-3.05-3.026-3.05-.904 0-1.714.4-2.269 1.034a3.008 3.008 0 00-2.27-1.034c-1.67 0-3.025 1.365-3.025 3.05 0 .149.01.295.031.438l2.238 15.675m6.368-2.212c.293-2.051-1.286-3.888-3.342-3.888s-3.635 1.837-3.342 3.888M6.396 37.8v-6.425A17.653 17.653 0 011 18.638C1 8.897 8.835 1 18.5 1S36 8.897 36 18.638c0 5.008-2.07 9.528-5.396 12.738v6.425H6.396z" stroke="#4C4C4C" stroke-width="2" stroke-miterlimit="10"/></svg>