<svg width="62" height="64" fill="none" xmlns="http://www.w3.org/2000/svg"><path d="M30.947 48.233C30.947 56.388 37.56 63 45.715 63c8.155 0 14.767-6.612 14.767-14.767 0-8.156-6.612-14.768-14.767-14.768-8.156 0-14.768 6.612-14.768 14.768zm0 0l-18.508 9.73 3.535-20.61L1 22.759l20.693-3.007L30.947 1l9.255 18.751 20.693 3.007-11.468 11.178m2.677 10.392l-7.81 7.81-4.969-4.97" stroke="#4C4C4C" stroke-width="1.5" stroke-linecap="round" stroke-linejoin="round"/><path d="M52.102 44.328l-7.81 7.809-4.968-4.97m21.156 1.065C60.48 56.388 53.869 63 45.713 63c-8.156 0-14.768-6.612-14.768-14.768s6.612-14.767 14.768-14.767c8.155 0 14.767 6.611 14.767 14.767z" stroke="#E31E24" stroke-width="1.5" stroke-linecap="round" stroke-linejoin="round"/></svg>