<svg width="68" height="64" fill="none" xmlns="http://www.w3.org/2000/svg"><path d="M38.183 46.278V63m-8.232-.257V46.278M19.66 62.743h28.813M1 38.046h66.133m-24.834 0v-4.117a8.232 8.232 0 10-16.465 0v4.117m28.814 0v-8.233h-4.699a16.27 16.27 0 00-1.746-4.198l3.327-3.328-5.821-5.821-3.327 3.327a16.287 16.287 0 00-4.2-1.746v-4.699H29.95v4.699a16.27 16.27 0 00-4.198 1.746l-3.328-3.327-5.82 5.821 3.326 3.328a16.295 16.295 0 00-1.746 4.198h-4.698v8.233m53.647 8.232H1V1h66.133v45.278z" stroke="#4C4C4C" stroke-width="1.5" stroke-linecap="round" stroke-linejoin="round"/><path d="M42.298 38.045v-4.116a8.232 8.232 0 10-16.465 0v4.116m28.813 0v-8.233h-4.698a16.305 16.305 0 00-1.746-4.198l3.327-3.328-5.821-5.821-3.328 3.327a16.287 16.287 0 00-4.199-1.746v-4.698H29.95v4.698c-1.497.388-2.9.98-4.199 1.746l-3.327-3.327-5.821 5.821 3.327 3.328a16.295 16.295 0 00-1.746 4.198h-4.699v8.233" stroke="#E31E24" stroke-width="1.5" stroke-linecap="round" stroke-linejoin="round"/></svg>