<svg width="147" height="89" fill="none" xmlns="http://www.w3.org/2000/svg"><g clip-path="url(#clip0_42_21281)"><path d="M33.486 46.1v5.6h-1.262v-4.493h-1.331l-.09 1.816c-.038.684-.12 1.224-.247 1.62a1.45 1.45 0 01-.557.78c-.244.182-.668.274-1.092.277h-.321v-.995l.187-.02c.282-.04.482-.21.602-.513.122-.306.2-.721.232-1.501L29.7 46.1h3.786zm-32.673 0h2.159l1.52 3.837 1.52-3.837h2.15v5.6H6.69v-4.214L4.98 51.7H3.873l-1.718-4.222V51.7H.813v-5.6zm8.984 5.6v-5.6h4.748v1.01h-3.254v1.26h2.479v.933h-2.48v1.386h3.406v1.01h-4.9zm5.719 0v-5.6h5.125v.963h-3.56v1.23h1.383c.97 0 1.662.128 2.076.383.462.282.692.72.692 1.316 0 .69-.304 1.17-.912 1.441-.408.178-1.027.267-1.856.267h-2.948zm1.564-.956h1.404c.803 0 1.204-.25 1.204-.752 0-.511-.401-.767-1.204-.767H17.08v1.52zm4.967.956v-5.6h4.748v1.01h-3.254v1.26h2.479v.933h-2.48v1.386h3.406v1.01h-4.9zm13.07 0v-5.6h1.378v1.958h1.094c.848 0 1.454.135 1.819.407.406.303.61.775.61 1.418 0 .736-.266 1.247-.795 1.535-.36.188-.904.282-1.634.282h-2.472zm1.378-.932h1.112c.706 0 1.06-.295 1.06-.885 0-.596-.354-.893-1.06-.893h-1.112v1.778zm5.153.932v-5.6h1.325v2.27h2.251V46.1h1.324v5.6h-1.324v-2.32h-2.251v2.32h-1.325zm12.252 0h-1.58l-.427-1.066h-2.695l-.437 1.066h-1.394l2.435-5.6h1.71l2.389 5.6zm-2.36-1.958l-.985-2.46-1.004 2.46h1.989zm8.895 1.958h-1.532v-2.14H57.87c-.408 0-.696.092-.862.275a1.032 1.032 0 00-.182.274 3.261 3.261 0 00-.162.509c-.134.501-.284.861-.45 1.08H54.72c.16-.187.325-.608.498-1.26.108-.428.24-.731.392-.909.16-.178.415-.313.766-.407a2.905 2.905 0 01-.565-.188 1.396 1.396 0 01-.364-.267c-.242-.26-.363-.592-.363-.994 0-.585.277-1.013.833-1.285.217-.11.46-.185.727-.227a7.43 7.43 0 011.092-.062h2.7v5.6zm-1.532-3.07v-1.598h-1.206c-.409 0-.702.062-.881.188-.179.12-.268.318-.268.595 0 .543.37.814 1.11.814h1.245zm5.613 3.07v-5.6h1.31v2.412l1.992-2.412h1.458l-2.015 2.373 2.155 3.227h-1.467l-1.557-2.303-.565.658V51.7h-1.311zm9.422-5.6c.824 0 1.5.26 2.026.782.533.522.8 1.188.8 1.999 0 .83-.267 1.51-.8 2.036-.532.522-1.224.783-2.075.783-.84 0-1.524-.259-2.051-.775-.527-.517-.791-1.188-.791-2.014 0-.82.269-1.494.807-2.021.544-.527 1.239-.79 2.084-.79zm-.016.98c-.473 0-.84.16-1.104.479-.264.319-.395.767-.395 1.344 0 .568.131 1.014.395 1.338.264.319.629.478 1.095.478.467 0 .83-.16 1.088-.478.258-.32.387-.765.387-1.338 0-.562-.132-1.005-.395-1.33-.264-.329-.621-.493-1.071-.493zm5.297-.98h2.159l1.52 3.837L84.42 46.1h2.15v5.6h-1.474v-4.214L83.387 51.7h-1.108l-1.718-4.222V51.7H79.22v-5.6zm9.797 5.6v-4.59h.025V46.1h4.875v5.6H92.54v-4.59h-2.149v4.59h-1.375zm13.064 0h-1.579l-.428-1.066h-2.696l-.436 1.066h-1.394l2.434-5.6h1.711l2.388 5.6zm-2.36-1.958l-.985-2.46-1.004 2.46h1.99zm3.999 1.958v-5.6h1.545v2.27h2.626V46.1h1.545v5.6h-1.545v-2.32h-2.626v2.32h-1.545zm8.164 0v-5.6h1.336v3.391l2.228-2.898V46.1h1.336v5.6h-1.336v-3.43l-2.228 2.897v.533h-1.336zm12.248 0h-1.532v-2.14h-1.035c-.408 0-.695.092-.861.275a1.058 1.058 0 00-.183.274 3.387 3.387 0 00-.162.509c-.134.501-.284.861-.45 1.08h-1.494c.159-.187.326-.608.498-1.26.109-.428.239-.731.393-.909.159-.178.415-.313.766-.407a2.9 2.9 0 01-.565-.188 1.388 1.388 0 01-.364-.267c-.243-.26-.364-.592-.364-.994 0-.585.278-1.013.833-1.285.217-.11.46-.185.728-.227a7.421 7.421 0 011.092-.062h2.7v5.6zm-1.532-3.07v-1.598h-1.207c-.409 0-.702.062-.881.188-.179.12-.268.318-.268.595 0 .543.37.814 1.111.814h1.245z" fill="#9D9E9E"/><path d="M2.208.52C.688.52.782 1.814.782 3.476v38.279c0 .665.507.83.76.83h3.706c.533 0 .729-.553.76-.83-.031-10.677-.075-23.51 0-24.617.096-1.385 1.426-3.046 1.901-3.416.38-.295.475.246.475.554v27.479c0 .59.507.8.76.83h3.896c.608 0 .697-.553.665-.83V.797c-.19-.646-.697-.092-.95.277-2.47 3.6-5.796 9.047-6.366 9.232-.36.117-.38-.431-.38-.739V3.475C6.009.89 5.059.52 4.393.52H2.208zm97.496.093c-3.116 0-4.023 3.077-4.086 4.615.032 12.617.095 29.88.095 33.203 0 3.323 2.978 4.092 4.466 4.062h7.982c.475 0 .38-.554.38-1.662 0-.886-.285-1.108-.855-1.108h-5.987c-.988 0-1.14-.646-1.14-1.57v-18.37c0-.739.57-.862.951-.831h6.461c.761 0 .665-1.939.285-2.493-.304-.443-1.426-.277-1.996-.277h-4.371c-1.14 0-1.425-.646-1.425-1.015V4.859c0-.812.761-1.015 1.14-1.015h4.941c1.141 0 1.901-.739 1.901-1.939 0-.96-1.267-1.261-1.901-1.292h-6.84z" fill="#E41F23"/><path fill-rule="evenodd" clip-rule="evenodd" d="M64.261 2.644c-.095-.677.038-2.031 1.33-2.031h6.937c2.566 0 4.561 2.492 4.561 4.8v23.263c0 1.938-.285 5.63-3.04 5.63h-3.992c-.348 0-1.045.186-1.045.924v6.432c0 .277-.152.83-.76.83h-2.946c-.348 0-1.045-.166-1.045-.83V2.644zm5.987 1.107c-.913 0-1.33.831-1.33 1.939v24.924c0 .739.506.924.76.924h1.615c.304 0 .316-.8.285-1.2V4.95c0-.738-.57-1.2-1.33-1.2zm9.597-1.015c.095-.708.703-2.123 2.375-2.123 2.09 0 2.47 1.57 2.47 2.123v12.74c0 .338.152 1.015.76 1.015.09 0 .247-.015.454-.034 1.542-.14 5.886-.534 6.389 2.803.456 3.028.442 11.508.38 15.14-.007.39-.005 1.283-.002 2.427.01 3.451.025.379-.189 1.42l-.051.273c-.207 1.138-.672 3.702-3.18 3.972-2.736.296-6.904.185-8.646.093-.19.03-.57-.166-.57-1.2s-.127-23.264-.19-38.65zM86.02 19.26c-1.064 0-1.33 1.292-1.33 1.938.031 8.586.095 17.048.095 17.417 0 .462 0 1.2 1.235 1.2.988 0 1.172-1.107 1.14-1.661V20.92c.064-.553-.076-1.661-1.14-1.661zm25.371-17.17c-.031-.493.134-1.477 1.046-1.477h7.412c2.219 0 4.465 1.79 4.465 4.523v24.001c0 1.293-.285 4.34-2.28 5.078-1.101.407-2.812.336-3.808.294-.232-.01-.425-.017-.563-.017l-.152-.002c-.559-.009-1.274-.02-1.274.925v6.154c.032.308-.075.923-.759.923h-3.706c-.127 0-.381-.166-.381-.83V2.09zm6.177 1.754c-1.14 0-1.362.923-1.331 1.384v24.925c0 .554.039 1.662 1.331 1.662 1.293 0 1.33-1.293 1.33-1.662V5.228c.032-.461-.189-1.384-1.33-1.384z" fill="#E41F23"/><path d="M47.733 1.897c.475-.523 1.426-1.284 3.985-1.284h7.412c.665 0 1.995.258 1.995 1.292 0 1.292-.475 1.939-1.995 1.939h-5.986c-.349-.031-1.046.166-1.046 1.2v10.03c.032.37.343 1.108 1.33 1.108h6.937c.254 0 .76.148.76.739v1.385c0 .246-.152.738-.76.738H53.43c-.444-.03-1.33.092-1.33.83v18.741c-.032.339.075 1.016.76 1.016h7.601c.254 0 .76.148.76.738v1.477c0 .185-.152.554-.76.554h-9.312c-1.52-.03-4.56-.83-4.56-3.785V4.86c0-1.565.867-2.656 1.145-2.962zM17.696.52c-.836 0-1.235 1.108-1.33 1.662.032 15.878.095 38.981.095 39.572 0 .59.507.8.76.83 1.235-.03 3.858-.091 4.466-.091.608 0 .697-.616.665-.924V20.091c0-1.177 1.372-1.02 2.018-.947.114.013.206.024.263.024.304 0 .443.615.475.923v21.478c0 .739.57.924.855.924h3.61c.913 0 1.078-.616 1.046-.924V1.872c0-.28-.062-.84-.316-1.023-.144-.141-.369-.236-.73-.236h-3.135c-.988 0-1.235.8-1.235 1.2v13.755c0 .59-.38.8-.57.83h-1.71c-.609 0-.824-.554-.856-.83V1.813c0-1.108-.887-1.323-1.33-1.292h-3.04z" fill="#E41F23"/><path d="M32.049.613h13.303c.491 0 1.425.098 1.425 1.015 0 1.847-.087 2.216-1.425 2.216h-2.66c-.38-.031-1.141.166-1.141 1.2v36.525c0 .308-.133.923-.665.923h-4.181a.884.884 0 01-.76-.923V4.674c-.063-.276-.361-.83-1.045-.83h-2.851c-1.207.042-1.207-1.249-1.207-2.216 0-.609.491-1.015 1.207-1.015z" fill="#E41F23"/><path fill-rule="evenodd" clip-rule="evenodd" d="M68.906 54.577c-.482-.247-1.59-.444-2.169.739-.578 1.183-3.752 7.04-5.267 9.821-.62 1.056-1.611 3.38-.62 4.224.992.845 3.099-.422 4.028-1.161l5.061-3.802c.31-.176.93-.38.93.211 0 .306-.23.776-.486 1.296-.361.735-.771 1.57-.65 2.189-.035.563 0 1.71.413 1.795.516.106 2.168-.105 3.098-.739.93-.634 1.343.106 1.136.528-.165.338-1.515 2.605-2.169 3.696-.344.423-.826 1.373 0 1.796 1.033.528 2.273 1.055 2.376 0 .103-1.056 1.24-4.647 1.549-5.07.09-.123.198-.47.326-.882.311-1.002.741-2.387 1.326-1.863.104.704 1.109 2.187 2.678 2.356 1.963.21 5.895-.244 7.651-1.3 1.404-.845 1.618 0 1.55.528-.07.317 0 .95.825.95 1.033 0 1.962 0 2.066-.739.103-.74 2.168-5.491 5.164-5.597.688-.176 2.127-.591 2.376-.845.309-.317 1.238-.105.929.528-.026.054-.07.138-.127.247-.62 1.184-2.793 5.336-.802 5.984 1.092.356 2.448.296 3.63.244 1.275-.056 2.348-.104 2.669.39.496.76 1.24.246 1.55-.106.241-.528.93-1.774 1.755-2.535.16-.146.434-.413.789-.758 1.951-1.896 6.338-6.163 7.474-5.895.817.193-.207 1.62-1.289 3.13-.341.474-.687.957-.983 1.411-.826 1.162-2.768 4.14-1.446 4.647 1.727.662 2.46-.371 2.94-1.049.056-.079.109-.153.159-.218 1.893-2.43 6.279-7.076 7.436-6.653 1.075.392.152 1.94-.398 2.862l-.119.2c-.068.118-.146.245-.228.38-.78 1.283-1.989 3.273-.495 4.267 1.653 1.098 3.925.035 4.855-.634.55-.352 1.549-.803 1.136.211-.792 1.232-2.541 4.119-3.202 5.808-.245.629-.564 1.237-.853 1.79-.682 1.303-1.196 2.287-.18 2.434 1.157.17 1.997-.492 2.272-.844l10.638-16.791c.827-1.373 2.48-2.324 3.099-1.479.206.281-.158 1.133-.634 2.246-.956 2.238-2.364 5.53-.502 7.364 1.487.423 3.305-.281 4.027-.739.69-.317 2.005-1.352 1.756-2.957-.034-.281-.309-.676-1.136 0-1.032.845-2.581.528-2.065-.633.516-1.162 2.892-7.498.62-8.871-1.818-1.099-3.65 1.02-4.338 2.218-1.094 1.9-3.305 3.801-2.686 1.9.119-.362.357-.944.65-1.655 1.043-2.541 2.762-6.727 2.036-8.377-.207-.422-.476-.718-1.55 1.056-1.073 1.774-3.752 8.343-4.957 11.405-.276 1.021-1.549 3.105-4.441 3.274-1.818.253-.964-1.795-.31-2.851.826-1.479 2.045-4.605.31-5.28-1.735-.676-4.372 1.619-5.474 2.85-.654.388-1.715.74-.723-.95 1.239-2.112 1.136-3.273.413-3.907-.723-.634-2.272-.317-4.338 1.795-1.652 1.69-3.305 3.098-3.924 3.59-.482.071-1.24-.02-.414-.95l1.963-3.801c.379-.564.95-1.838.206-2.43-.744-.59-2.307 1.374-2.995 2.43l-5.268 7.92c-.619.845-4.505 3.38-4.234.422.159-1.732.806-3.325 1.386-4.751.55-1.357 1.04-2.562.99-3.591-.414-.634-1.343-1.732-1.756-1.056-.516.844-1.033 1.795-1.136 2.745-.104.95-.413 1.795-1.859 2.112-.304.067-.693.18-1.112.301-1.578.457-3.57 1.035-2.916-.3.215-.441.423-.881.623-1.303.566-1.196 1.06-2.242 1.443-2.71.516-.634.412-1.373-.207-1.901a9.683 9.683 0 01-.168-.147c-.531-.466-.923-.811-1.485.147-.496.844-3.855 7.04-5.474 10.032-.137.493-.723 1.5-1.962 1.584-1.549.106-2.582.317-3.822.845-1.239.528-4.75.105-4.027-1.373.722-1.478 1.136-1.69 2.375-1.9 1.24-.212 2.788-.74 3.719-1.374.067-.046.149-.1.243-.162 1.202-.795 4.344-2.873 3.578-5.224-.827-2.534-1.963-2.64-3.925-2.534-1.963.106-5.164 3.062-6.197 4.435-.187.248-.438.651-.746 1.147-1.4 2.246-3.992 6.405-7.207 6.774-.482 0-1.343-.233-.93-1.162.517-1.162 2.36-5.917 2.583-7.287.206-1.267-.207-3.168-1.446-2.217-1.142.875-3.424 4.26-4.503 5.862l-.248.368c-.744 1.099-2.513 2.077-3.305 2.43-.448.105-1.178.041-.517-1.057.827-1.373 4.751-8.924 3.615-9.504zm14.46 6.653c-.66.93-.207 1.302.103 1.373 1.341.182 2.838-.98 3.684-1.639.131-.102.247-.191.344-.262.723-.528 2.582-3.063.723-3.485-1.75-.398-3.772 2.477-4.694 3.786l-.16.227z" fill="#E41F23"/></g><defs><clipPath id="clip0_42_21281"><path fill="#fff" transform="translate(0 .5)" d="M0 0h147v88H0z"/></clipPath></defs></svg>