<svg width="179" height="52" fill="none" xmlns="http://www.w3.org/2000/svg"><g clip-path="url(#clip0_775_23296)"><path d="M48 44v8h-1.802v-6.418h-1.903l-.128 2.594c-.053.978-.17 1.75-.352 2.314a2.07 2.07 0 01-.796 1.115c-.35.26-.955.391-1.56.395H41v-1.421l.267-.028c.402-.057.69-.301.86-.734.175-.437.285-1.03.331-2.144L42.592 44H48zM1 44h2.937l2.07 5.483L8.074 44H11v8H8.995v-6.02L6.67 52H5.162l-2.337-6.03V52H1v-8zm12 8v-8h6.784v1.443h-4.649v1.802h3.54v1.331h-3.54v1.98H20V52h-7zm9 0v-8h7.172v1.376h-4.983v1.757h1.937c1.357 0 2.325.183 2.906.548.645.403.968 1.03.968 1.88 0 .984-.426 1.67-1.277 2.059-.57.253-1.436.38-2.597.38H22zm2.19-1.365h1.964c1.123 0 1.685-.358 1.685-1.074 0-.731-.562-1.097-1.685-1.097H24.19v2.171zM32 52v-8h6.784v1.443h-4.649v1.802h3.54v1.331h-3.54v1.98H39V52h-7zm18 0v-8h1.968v2.797h1.564c1.21 0 2.076.194 2.598.582.58.433.87 1.108.87 2.025 0 1.052-.378 1.783-1.135 2.193-.513.269-1.29.403-2.333.403H50zm1.968-1.331h1.589c1.009 0 1.513-.422 1.513-1.265 0-.85-.504-1.275-1.513-1.275h-1.59v2.54zM59 52v-8h1.892v3.245h3.216V44H66v8h-1.892v-3.312h-3.216V52H59zm18 0h-2.176l-.59-1.522h-3.712L69.92 52H68l3.354-8h2.356L77 52zm-3.252-2.797l-1.357-3.514-1.383 3.514h2.74zM87 52h-2.144v-3.054h-1.447c-.572 0-.974.13-1.206.391-.108.12-.192.25-.255.392-.062.134-.138.376-.228.727-.187.716-.397 1.23-.63 1.544H79c.223-.269.456-.869.697-1.801.152-.612.335-1.045.55-1.298.222-.254.58-.448 1.071-.582a4.012 4.012 0 01-.79-.269 1.958 1.958 0 01-.51-.38c-.339-.373-.509-.847-.509-1.421 0-.836.389-1.447 1.166-1.835a3.354 3.354 0 011.019-.325c.375-.06.884-.089 1.527-.089H87v8zm-2.144-4.386v-2.282h-1.688c-.572 0-.983.089-1.233.268-.25.172-.376.455-.376.85 0 .776.519 1.164 1.555 1.164h1.742zM99 52v-8h1.873v3.446L103.717 44h2.084l-2.88 3.39L106 52h-2.095l-2.224-3.29-.808.94V52H99zm13.046-8c1.153 0 2.098.373 2.836 1.118.745.745 1.118 1.697 1.118 2.855 0 1.187-.373 2.156-1.118 2.909-.746.745-1.714 1.118-2.905 1.118-1.176 0-2.133-.37-2.87-1.107-.738-.738-1.107-1.697-1.107-2.877 0-1.172.377-2.134 1.13-2.887.76-.753 1.733-1.129 2.916-1.129zm-.023 1.4c-.661 0-1.176.228-1.545.684-.368.456-.553 1.096-.553 1.921 0 .81.185 1.448.553 1.91.369.457.88.685 1.533.685.654 0 1.161-.228 1.522-.684.361-.456.542-1.093.542-1.91 0-.804-.185-1.437-.553-1.9-.369-.47-.869-.706-1.499-.706zM118 44h3.231l2.276 5.483L125.783 44H129v8h-2.206v-6.02L124.238 52h-1.658l-2.571-6.03V52H118v-8zm13 8v-6.557h.037V44H138v8h-1.965v-6.557h-3.07V52H131zm18 0h-2.176l-.59-1.522h-3.712L141.921 52H140l3.354-8h2.357L149 52zm-3.251-2.797l-1.357-3.514-1.384 3.514h2.741zM151 52v-8h2.432v3.245h4.136V44H160v8h-2.432v-3.312h-4.136V52H151zm11 0v-8h1.91v4.845l3.182-4.14V44H169v8h-1.908v-4.9l-3.182 4.14V52H162zm17 0h-2.144v-3.054h-1.448c-.571 0-.973.13-1.205.391a1.47 1.47 0 00-.255.392c-.063.134-.138.376-.227.727-.188.716-.398 1.23-.63 1.544H171c.223-.269.456-.869.697-1.801.152-.612.335-1.045.55-1.298.223-.254.581-.448 1.072-.582a3.993 3.993 0 01-.791-.269 1.934 1.934 0 01-.509-.38c-.34-.373-.51-.847-.51-1.421 0-.836.389-1.447 1.166-1.835a3.364 3.364 0 011.018-.325c.376-.06.884-.089 1.529-.089H179v8zm-2.144-4.386v-2.282h-1.689c-.571 0-.982.089-1.232.268-.251.172-.375.455-.375.85 0 .776.517 1.164 1.554 1.164h1.742z" fill="#9D9E9E"/><path d="M1.78.017C.55.017.626 1.077.626 2.44v31.416c0 .546.41.682.615.682h3c.431 0 .59-.454.616-.682-.026-8.763-.062-19.294 0-20.203.077-1.136 1.154-2.5 1.538-2.803.308-.243.385.202.385.454v22.552c0 .485.41.657.615.682h3.154c.492 0 .564-.454.538-.682V.244c-.153-.53-.564-.076-.769.227-2 2.955-4.692 7.425-5.154 7.577-.292.095-.307-.354-.307-.606v-5C4.857.32 4.087.016 3.549.016h-1.77zm78.925.076c-2.522 0-3.256 2.525-3.307 3.788.026 10.354.077 24.522.077 27.249 0 2.727 2.41 3.359 3.615 3.334h6.461c.385 0 .308-.455.308-1.364 0-.727-.23-.91-.692-.91H82.32c-.8 0-.922-.53-.922-1.287V15.825c0-.606.461-.707.77-.681h5.23c.615 0 .538-1.591.23-2.046-.246-.364-1.154-.227-1.615-.227h-3.538c-.923 0-1.154-.53-1.154-.834v-8.46c0-.666.615-.833.923-.833h4c.923 0 1.538-.606 1.538-1.59 0-.789-1.025-1.036-1.538-1.061h-5.539z" fill="#E41F23"/><path fill-rule="evenodd" clip-rule="evenodd" d="M52.014 1.76c-.078-.556.03-1.667 1.076-1.667h5.616c2.077 0 3.692 2.045 3.692 3.94v19.091c0 1.591-.23 4.622-2.462 4.622h-3.23c-.282 0-.846.151-.846.757v5.279c0 .227-.123.682-.616.682H52.86c-.282 0-.846-.137-.846-.682V1.759zm4.846.908c-.739 0-1.077.682-1.077 1.591v20.456c0 .606.41.758.615.758h1.308c.246 0 .256-.657.23-.985V3.653c0-.606-.461-.985-1.076-.985zm7.769-.833c.077-.58.569-1.742 1.923-1.742 1.692 0 2 1.287 2 1.742V12.29c0 .278.122.834.615.834.073 0 .2-.012.367-.028 1.248-.114 4.765-.438 5.172 2.3.369 2.485.358 9.445.307 12.425-.005.32-.003 1.054-.001 1.992.008 2.833.02.312-.153 1.166l-.041.224c-.168.934-.545 3.038-2.574 3.26-2.216.243-5.59.152-7 .076-.154.026-.462-.136-.462-.985 0-.848-.102-19.092-.153-31.719zm5 13.561c-.862 0-1.078 1.061-1.078 1.591.026 7.046.078 13.992.078 14.295 0 .378 0 .984 1 .984.8 0 .948-.909.922-1.363V16.76c.052-.455-.061-1.364-.922-1.364zM90.166 1.305c-.025-.404.108-1.212.847-1.212h6a3.668 3.668 0 013.615 3.712v19.698c0 1.06-.231 3.56-1.846 4.167-.892.334-2.276.276-3.083.242a12.307 12.307 0 00-.455-.015l-.124-.001c-.452-.008-1.03-.017-1.03.759v5.05c.025.253-.062.759-.615.759h-3c-.103 0-.308-.137-.308-.682V1.305zm5 1.44c-.922 0-1.102.757-1.076 1.136v20.455c0 .455.03 1.364 1.076 1.364 1.047 0 1.078-1.06 1.078-1.364V3.881c.025-.38-.154-1.137-1.078-1.137z" fill="#E41F23"/><path d="M38.633 1.146C39.018.717 39.788.093 41.86.093h6c.538 0 1.615.212 1.615 1.06 0 1.06-.385 1.591-1.615 1.591h-4.846c-.283-.025-.847.137-.847.985v8.232c.026.303.277.91 1.077.91h5.616c.205 0 .615.12.615.606v1.136c0 .202-.123.606-.615.606h-5.616c-.359-.025-1.077.076-1.077.682v15.38c-.025.278.062.834.616.834h6.154c.205 0 .615.121.615.606v1.212c0 .152-.123.455-.615.455h-7.539c-1.23-.026-3.692-.682-3.692-3.106V3.578c0-1.285.702-2.18.927-2.432zM14.318.017c-.677 0-1 .909-1.077 1.364.026 13.03.077 31.992.077 32.476 0 .485.41.657.616.682 1-.025 3.123-.075 3.615-.075s.564-.505.538-.758V16.078c0-.965 1.111-.837 1.634-.776.092.01.166.019.212.019.247 0 .36.505.385.757v17.628c0 .606.462.758.692.758h2.923c.739 0 .872-.505.846-.758V1.126c0-.23-.05-.69-.256-.84-.116-.115-.298-.193-.59-.193h-2.538c-.8 0-1 .656-1 .984v11.289c0 .485-.308.657-.462.682H18.55c-.492 0-.667-.455-.692-.682V1.078c0-.91-.718-1.086-1.077-1.061h-2.462z" fill="#E41F23"/><path d="M25.937.093h10.769c.398 0 1.154.08 1.154.833 0 1.516-.07 1.818-1.154 1.818h-2.154c-.307-.025-.923.137-.923.985v29.977c0 .252-.108.758-.538.758h-3.385a.723.723 0 01-.615-.758V3.426c-.052-.227-.293-.682-.846-.682h-2.308c-.977.035-.977-1.024-.977-1.818 0-.5.397-.833.977-.833z" fill="#E41F23"/><path fill-rule="evenodd" clip-rule="evenodd" d="M116.862 21.384c-.39-.202-1.288-.364-1.756.607-.468.97-3.038 5.778-4.264 8.06-.501.867-1.304 2.774-.501 3.467.802.693 2.508-.347 3.26-.953l4.097-3.12c.251-.145.753-.312.753.173 0 .251-.187.637-.394 1.063-.292.604-.624 1.29-.526 1.797-.028.462 0 1.404.334 1.473.418.087 1.756-.086 2.509-.606.752-.52 1.086.086.919.433-.134.277-1.226 2.138-1.756 3.034-.278.346-.668 1.126 0 1.473.837.433 1.84.867 1.923 0 .084-.867 1.004-3.814 1.255-4.16.073-.101.16-.386.264-.725.251-.822.599-1.958 1.073-1.529.084.578.897 1.795 2.168 1.934 1.589.173 4.772-.2 6.194-1.067 1.136-.693 1.309 0 1.254.433-.056.26 0 .78.668.78.836 0 1.589 0 1.673-.606.083-.607 1.755-4.507 4.18-4.594.557-.144 1.722-.485 1.923-.693.251-.26 1.003-.087.752.433a6.85 6.85 0 01-.103.203c-.501.972-2.26 4.38-.649 4.91.885.293 1.982.243 2.939.2 1.032-.045 1.9-.084 2.161.32.401.625 1.004.203 1.254-.086.195-.433.753-1.456 1.421-2.08.129-.12.352-.339.639-.622 1.579-1.556 5.131-5.058 6.051-4.838.661.158-.168 1.33-1.044 2.568-.276.39-.556.786-.796 1.159-.669.953-2.241 3.397-1.17 3.813 1.398.544 1.991-.304 2.38-.86.044-.065.087-.126.128-.18 1.532-1.993 5.083-5.807 6.02-5.46.87.322.123 1.592-.323 2.35l-.096.163c-.055.097-.118.201-.185.312-.63 1.053-1.61 2.686-.4 3.502 1.338.901 3.178.029 3.93-.52.446-.29 1.254-.659.92.173-.642 1.011-2.057 3.38-2.592 4.767-.199.515-.457 1.015-.691 1.468-.552 1.07-.968 1.877-.145 1.999a2.03 2.03 0 001.839-.694l8.612-13.78c.669-1.127 2.007-1.907 2.508-1.214.167.23-.128.93-.513 1.843-.774 1.837-1.914 4.54-.407 6.044 1.204.347 2.676-.23 3.261-.606.558-.26 1.622-1.11 1.421-2.427-.028-.231-.25-.555-.919 0-.836.693-2.09.433-1.672-.52.417-.953 2.341-6.154.501-7.28-1.471-.902-2.954.837-3.511 1.82-.886 1.56-2.676 3.12-2.174 1.56.096-.298.289-.775.525-1.358.845-2.087 2.237-5.521 1.649-6.876-.168-.347-.385-.59-1.255.867-.869 1.456-3.037 6.847-4.012 9.36-.224.838-1.255 2.548-3.596 2.687-1.471.208-.78-1.473-.251-2.34.669-1.213 1.656-3.779.251-4.334-1.404-.554-3.539 1.33-4.431 2.34-.53.318-1.388.607-.586-.78 1.004-1.733.92-2.686.335-3.206s-1.839-.26-3.511 1.473a39.405 39.405 0 01-3.178 2.947c-.39.058-1.003-.017-.334-.78l1.588-3.12c.307-.463.769-1.508.168-1.994-.603-.485-1.868 1.127-2.425 1.994l-4.264 6.5c-.502.693-3.648 2.773-3.428.347.129-1.422.652-2.73 1.122-3.9.445-1.113.842-2.102.801-2.947-.335-.52-1.087-1.422-1.422-.867-.417.693-.836 1.473-.919 2.253-.084.78-.335 1.474-1.505 1.734-.246.054-.561.147-.9.247-1.278.375-2.889.849-2.361-.247.174-.362.343-.723.504-1.07.458-.98.859-1.84 1.169-2.224.417-.52.333-1.126-.168-1.56a5.524 5.524 0 01-.136-.12c-.43-.383-.747-.666-1.202.12-.401.694-3.121 5.778-4.431 8.234-.111.404-.585 1.23-1.588 1.3-1.254.087-2.091.26-3.094.693-1.003.434-3.846.087-3.261-1.126.585-1.214.92-1.387 1.923-1.56 1.003-.174 2.257-.607 3.01-1.127l.197-.134c.974-.652 3.517-2.357 2.897-4.286-.669-2.08-1.589-2.167-3.178-2.08-1.588.086-4.18 2.513-5.016 3.64-.151.203-.354.534-.604.94-1.133 1.844-3.231 5.258-5.834 5.56-.39 0-1.087-.19-.752-.953.418-.954 1.909-4.856 2.09-5.98.167-1.04-.167-2.6-1.171-1.82-.924.718-2.771 3.497-3.645 4.81l-.201.303c-.602.901-2.034 1.704-2.675 1.993-.363.087-.953.035-.418-.866.669-1.127 3.846-7.324 2.926-7.8zm11.705 5.46c-.535.763-.167 1.07.084 1.127 1.086.15 2.297-.804 2.983-1.344.105-.084.199-.158.278-.216.585-.433 2.09-2.513.585-2.86-1.416-.326-3.054 2.033-3.8 3.107l-.13.186z" fill="#E41F23"/></g><defs><clipPath id="clip0_775_23296"><path fill="#fff" d="M0 0h179v52H0z"/></clipPath></defs></svg>