<svg width="77" height="58" fill="none" xmlns="http://www.w3.org/2000/svg"><path d="M8.978 56.294l.27.37.392-.235c6.062-3.636 11.135-7.487 15.212-11.556 4.075-4.067 7.13-8.266 9.152-12.6 2.078-4.391 3.123-8.794 3.123-13.207 0-5.666-1.52-10.19-4.615-13.51C29.421 2.18 25.387.5 20.456.5c-4.39 0-8.036 1.375-10.894 4.146-2.806 2.718-4.195 6.296-4.195 10.683 0 2.876.727 5.41 2.195 7.578h0l.006.007c1.518 2.153 3.524 3.783 6.006 4.886 2.246.999 4.709 1.467 7.38 1.412-1.418 2.708-3.736 5.492-6.98 8.346-3.536 3.11-7.596 5.725-12.184 7.842l-.553.256.359.493 7.382 10.145zm39.373 0l.27.37.392-.235c6.062-3.636 11.135-7.487 15.212-11.556 4.075-4.067 7.13-8.266 9.151-12.6 2.079-4.39 3.124-8.794 3.124-13.207 0-5.667-1.52-10.191-4.615-13.51C68.793 2.179 64.759.499 59.829.499c-4.39 0-8.036 1.375-10.894 4.146-2.806 2.718-4.195 6.296-4.195 10.683 0 2.876.727 5.41 2.195 7.578h0l.006.007c1.518 2.153 3.524 3.783 6.005 4.886 2.247.999 4.71 1.467 7.38 1.412-1.417 2.708-3.735 5.492-6.98 8.346-3.535 3.11-7.595 5.725-12.183 7.842l-.553.256.359.493 7.382 10.145z" stroke="#fff" stroke-opacity=".4"/></svg>