<svg width="59" height="59" fill="none" xmlns="http://www.w3.org/2000/svg"><g clip-path="url(#clip0_1093_67787)"><path fill-rule="evenodd" clip-rule="evenodd" d="M29.5 13.894a10.737 10.737 0 107.592 3.145 10.704 10.704 0 00-7.592-3.145zm6.288 4.448A8.893 8.893 0 1123.213 30.92a8.893 8.893 0 0112.575-12.578zM13.08 6.775a23.286 23.286 0 0132.84 0c4.364 4.363 6.338 9.81 6.338 15.417 0 5.98-2.258 12.136-6.262 17.332L31.894 57.82a3.01 3.01 0 01-4.788 0L13.004 39.524C9 34.328 6.743 28.172 6.743 22.192c0-5.607 1.974-11.054 6.338-15.417z" fill="#FC0005"/></g><defs><clipPath id="clip0_1093_67787"><path fill="#fff" d="M0 0h59v59H0z"/></clipPath></defs></svg>