<svg width="32" height="32" fill="none" xmlns="http://www.w3.org/2000/svg"><g clip-path="url(#clip0_487_7055)"><path fill-rule="evenodd" clip-rule="evenodd" d="M16 7.536a5.823 5.823 0 100 11.646 5.823 5.823 0 000-11.646zm3.41 2.412a4.824 4.824 0 11-6.821 6.822 4.824 4.824 0 016.821-6.822zM7.094 3.674a12.63 12.63 0 0117.811 0c2.367 2.367 3.438 5.322 3.438 8.362 0 3.244-1.225 6.583-3.397 9.4l-7.648 9.924a1.63 1.63 0 01-2.597 0l-7.648-9.923c-2.172-2.818-3.397-6.157-3.397-9.4 0-3.042 1.071-5.996 3.438-8.363z" fill="#AEAEAE"/></g><defs><clipPath id="clip0_487_7055"><path fill="#fff" d="M0 0h32v32H0z"/></clipPath></defs></svg>