<svg width="25" height="17" fill="none" xmlns="http://www.w3.org/2000/svg"><path fill-rule="evenodd" clip-rule="evenodd" d="M16.016 16.5a7.953 7.953 0 01-4-1.08 7.988 7.988 0 000-13.841 8.003 8.003 0 0111.74 4.85 7.998 7.998 0 01-1.384 6.946 8.004 8.004 0 01-6.356 3.125z" fill="#F59E2D"/><path fill-rule="evenodd" clip-rule="evenodd" d="M8.012 8.5a7.991 7.991 0 004 6.921 8 8 0 110-13.842 7.996 7.996 0 00-4 6.921z" fill="#E70025"/><path fill-rule="evenodd" clip-rule="evenodd" d="M12.016 15.421a7.988 7.988 0 010-13.842 7.988 7.988 0 010 13.842z" fill="#FC5D1D"/></svg>