<svg width="37" height="41" fill="none" xmlns="http://www.w3.org/2000/svg"><path d="M9.792 26.892a1 1 0 001.912.585l-1.912-.585zm5.972-3.368v1-1zm5.235 0v1-1zm4.061 3.96a1 1 0 001.914-.583l-1.914.582zM1 1V0H0v1h1zm35 0h1V0h-1v1zm0 6.692v1h1v-1h-1zm-35 0H0v1h1v-1zm35 19.5h1v-1h-1v1zM36 40v1h1v-1h-1zM1 40H0v1h1v-1zm0-12.808v-1H0v1h1zm12.455-11.376a4.82 4.82 0 001.45 3.439l1.4-1.427a2.819 2.819 0 01-.85-2.012h-2zm1.45 3.439a4.964 4.964 0 003.476 1.415v-2a2.964 2.964 0 01-2.076-.843l-1.4 1.428zm3.476 1.415c1.3 0 2.552-.507 3.477-1.415l-1.4-1.427a2.964 2.964 0 01-2.077.842v2zm3.477-1.415a4.819 4.819 0 001.45-3.44h-2c0 .752-.304 1.476-.85 2.013l1.4 1.427zm1.45-3.44c0-1.293-.524-2.53-1.45-3.438l-1.4 1.427c.546.537.85 1.26.85 2.012h2zm-1.45-3.438a4.964 4.964 0 00-3.477-1.416v2c.782 0 1.529.306 2.076.843l1.401-1.427zm-3.477-1.416c-1.3 0-2.551.508-3.477 1.416l1.401 1.427a2.964 2.964 0 012.076-.843v-2zm-3.477 1.416a4.819 4.819 0 00-1.45 3.439h2c0-.751.305-1.475.851-2.012l-1.4-1.427zm-3.2 15.1a4.14 4.14 0 011.524-2.13l-1.179-1.616a6.141 6.141 0 00-2.257 3.16l1.912.586zm1.524-2.13a4.3 4.3 0 012.535-.823v-2a6.3 6.3 0 00-3.714 1.207l1.18 1.616zm2.536-.823h5.235v-2h-5.235v2zm5.235 0a4.3 4.3 0 012.538.825l1.18-1.615A6.301 6.301 0 0021 22.524v2zm2.538.825a4.14 4.14 0 011.523 2.134l1.914-.582a6.14 6.14 0 00-2.256-3.167l-1.18 1.615zM1 2h35V0H1v2zm34-1v6.692h2V1h-2zM2 7.692V1H0v6.692h2zm2.406-1H1v2h3.406v-2zm-1 1v19.5h2v-19.5h-2zm1 20.5h28.188v-2H4.406v2zM36 6.692h-3.406v2H36v-2zm-3.406 0H4.406v2h28.188v-2zm1 20.5v-19.5h-2v19.5h2zm-1 1H36v-2h-3.406v2zm2.406-1V40h2V27.192h-2zM36 39H1v2h35v-2zM2 40V27.192H0V40h2zM1 28.192h3.406v-2H1v2z" fill="#fff"/></svg>