<svg width="36" height="54" fill="none" xmlns="http://www.w3.org/2000/svg"><path d="M30.522 42.92H5.478a.778.778 0 00-.553.233.796.796 0 000 1.119.778.778 0 00.553.232h25.044a.778.778 0 00.553-.232.796.796 0 000-1.12.778.778 0 00-.553-.231zM8.603 33.425a.778.778 0 00-.553.232.796.796 0 000 1.12.778.778 0 00.553.231h.01a.77.77 0 00.552-.232.788.788 0 00.226-.56.8.8 0 00-.232-.56.783.783 0 00-.556-.23zm6.261 0a.778.778 0 00-.553.232.796.796 0 000 1.12.778.778 0 00.553.231h.01a.77.77 0 00.552-.232.787.787 0 00.226-.56.8.8 0 00-.232-.56.782.782 0 00-.556-.23zm-3.13 0a.778.778 0 00-.553.232.796.796 0 000 1.12.778.778 0 00.553.231h.01a.77.77 0 00.552-.232.788.788 0 00.226-.56.8.8 0 00-.233-.56.783.783 0 00-.555-.23zm0 4.749a.772.772 0 00-.72.489.8.8 0 00.424 1.038.778.778 0 00.857-.17.798.798 0 00-.55-1.357h-.011zm-3.13 0a.772.772 0 00-.72.489.8.8 0 00.424 1.038.778.778 0 00.857-.17.797.797 0 00-.551-1.357h-.01zm-3.126-.788a.778.778 0 00.554-.231.796.796 0 00.229-.56v-.008a.797.797 0 00-.489-.725.775.775 0 00-.85.176.794.794 0 00.556 1.348zM30.522 47.67H5.478a.778.778 0 00-.553.232.796.796 0 000 1.119.778.778 0 00.553.232h25.044a.778.778 0 00.553-.232.796.796 0 000-1.12.778.778 0 00-.553-.231zm3.13-38.197h-5.476l-.002-2.665a1.652 1.652 0 00-.571-1.248 1.611 1.611 0 00-1.31-.366l-2.815.471v-4.03A1.65 1.65 0 0022.74.263a1.605 1.605 0 00-1.54-.12L.478 9.534l-.003.001-.013.007-.012.005a.77.77 0 00-.25.188l-.015.017a.761.761 0 00-.13.22l-.008.02a.815.815 0 00-.042.179l-.002.02a.785.785 0 00-.003.06v41.375c0 .63.248 1.233.688 1.678.44.445 1.037.695 1.66.696h31.304c.623 0 1.22-.251 1.66-.696A2.39 2.39 0 0036 51.626v-39.78a2.39 2.39 0 00-.688-1.678 2.337 2.337 0 00-1.66-.696zm-7.104-2.717a.047.047 0 01.042.011.049.049 0 01.019.041l.002 2.665H10.306l16.242-2.717zM21.84 1.587a.051.051 0 01.067.023.052.052 0 01.006.025v4.29L6.621 8.486 21.84 1.587zm12.595 50.039a.8.8 0 01-.23.56.78.78 0 01-.553.231H2.348a.78.78 0 01-.553-.232.797.797 0 01-.23-.56v-40.57h32.087a.78.78 0 01.553.232c.147.148.23.35.23.56v39.779zM30.522 14.22H5.478a.778.778 0 00-.553.231.796.796 0 00-.23.56v14.455a.82.82 0 00.005.079c0 .011.003.022.004.033l.007.043c.002.013.006.026.01.039l.008.036.013.038.013.035.016.035c.006.012.01.024.017.036l.019.031.02.035.025.034.021.028a.785.785 0 00.049.055l.003.003.004.004a.809.809 0 00.053.049l.028.02.034.026.033.02c.01.006.021.014.033.02.01.006.022.01.034.016l.035.017.033.012.04.014.031.008c.014.004.028.008.043.01.011.003.023.004.034.006l.042.006a.549.549 0 00.058.003h25.062a.778.778 0 00.553-.23.796.796 0 00.23-.56V15.012a.796.796 0 00-.23-.56.778.778 0 00-.553-.232zM7.368 28.675l6.272-6.342 5.784 5.849.488.493H7.368zm14.758 0l-1.042-1.053 3.33-3.366 4.37 4.42h-6.658zm7.613-1.272l-4.772-4.826a.779.779 0 00-1.107 0l-3.882 3.926-5.785-5.85a.779.779 0 00-1.106 0L6.26 27.558V15.803h23.478v11.601zM5.48 35.01a.782.782 0 00.554-.233.8.8 0 00.098-1.001.786.786 0 00-.805-.337.781.781 0 00-.615.623.801.801 0 00.332.814c.129.087.28.133.435.134zm.004 4.745a.79.79 0 00.764-.95.795.795 0 00-.617-.62.776.776 0 00-.803.339.799.799 0 00.355 1.173c.096.04.198.06.301.058zm9.381-1.582a.771.771 0 00-.72.489.795.795 0 00-.057.302.8.8 0 00.482.735.778.778 0 00.857-.17.797.797 0 00-.551-1.356h-.01zm12.522 0a.772.772 0 00-.72.489.8.8 0 00.424 1.038.778.778 0 00.857-.17.797.797 0 00.173-.865.791.791 0 00-.724-.492h-.01zm0-4.749a.778.778 0 00-.553.232.796.796 0 000 1.12.778.778 0 00.553.231h.01a.77.77 0 00.552-.232.786.786 0 00.226-.56.8.8 0 00-.232-.56.783.783 0 00-.556-.23zm3.13 0a.778.778 0 00-.721.493.801.801 0 00.173.862.782.782 0 00.854.17.798.798 0 00-.004-1.466.772.772 0 00-.301-.059zm-6.26 4.749a.772.772 0 00-.72.489.795.795 0 00-.058.302.8.8 0 00.483.735.778.778 0 00.856-.17.797.797 0 00-.55-1.356h-.011zm6.266-2.379a.778.778 0 00-.554.232.796.796 0 00-.229.56v.008a.798.798 0 00.489.725.774.774 0 00.85-.176.794.794 0 00.166-.862.776.776 0 00-.722-.487zm0 2.376a.782.782 0 00-.555.233.8.8 0 00-.098 1 .786.786 0 00.805.337.782.782 0 00.615-.622.8.8 0 00-.332-.814.778.778 0 00-.435-.134zm-6.266-4.746a.778.778 0 00-.554.232.796.796 0 000 1.12.778.778 0 00.554.231h.01a.77.77 0 00.551-.232.787.787 0 00.227-.56.8.8 0 00-.233-.56.782.782 0 00-.555-.23zm-6.261 4.749a.772.772 0 00-.72.489.8.8 0 00.424 1.038.778.778 0 00.857-.17.797.797 0 00.173-.865.791.791 0 00-.724-.492h-.01zm0-4.749a.778.778 0 00-.554.232.796.796 0 000 1.12.778.778 0 00.554.231h.01a.77.77 0 00.552-.232.788.788 0 00.226-.56.8.8 0 00-.233-.56.783.783 0 00-.555-.23zm3.13 0a.778.778 0 00-.553.232.796.796 0 000 1.12.778.778 0 00.553.231h.01a.77.77 0 00.552-.232.788.788 0 00.226-.56.8.8 0 00-.232-.56.783.783 0 00-.556-.23zm0 4.749a.772.772 0 00-.72.489.8.8 0 00.424 1.038.778.778 0 00.857-.17.797.797 0 00-.55-1.357h-.01z" fill="#fff"/></svg>