<svg width="36" height="9" fill="none" xmlns="http://www.w3.org/2000/svg"><path fill-rule="evenodd" clip-rule="evenodd" d="M9.58 8.998V3.653h-.244l-1.74 5.345H5.524L3.788 3.653h-.242v5.345H.57v-9h2.976a1.722 1.722 0 011.66 1.186l1.223 4.16h.257l1.225-4.16A1.723 1.723 0 019.58-.002h2.976v9H9.58zm10.97 0V3.653h-.226l-1.881 4.485a1.47 1.47 0 01-.54.627 1.466 1.466 0 01-.792.233h-2.525v-9h3v5.345h.238l1.905-4.49.015-.034a1.455 1.455 0 011.312-.817h2.525v9h-3.028l-.002-.004zm11.564-2.986h-3.528v2.986h-3V3.991h9.953a3.596 3.596 0 01-3.425 2.021z" fill="#52B461"/><path fill-rule="evenodd" clip-rule="evenodd" d="M35.49 3.004h-5.412c-2.472 0-4.528-1.3-4.96-3.006h7.022c1.89 0 3.422 1.117 3.422 2.494 0 .173-.024.345-.072.512z" fill="url(#paint0_linear_320_1449)"/><defs><linearGradient id="paint0_linear_320_1449" x1="9268.63" y1="288.574" x2="9060.69" y2="288.574" gradientUnits="userSpaceOnUse"><stop stop-color="#198ECA"/><stop offset="1" stop-color="#1DB5E4"/></linearGradient></defs></svg>