<svg width="32" height="33" fill="none" xmlns="http://www.w3.org/2000/svg"><g clip-path="url(#clip0_337_4839)"><path d="M32 27.49a5.01 5.01 0 01-5.01 5.01H5.01A5.01 5.01 0 010 27.49V7.013L6.513.5H26.99A5.01 5.01 0 0132 5.51v21.98z" fill="#E24C3F"/><path opacity=".2" d="M0 10.503v-3.49h3.473L0 10.503z" fill="#5D5D5D"/><path d="M0 7.013h4.342c1.194 0 2.17-.96 2.17-2.154V.5L0 7.013zm5.36 15.011V11.546h5.186c.492 0 .93.08 1.311.242.382.16.699.384.95.67.251.287.442.629.573 1.026.13.397.196.836.196 1.319 0 .482-.063.935-.189 1.357a3.168 3.168 0 01-.557 1.093 2.56 2.56 0 01-.943.723c-.382.176-.829.264-1.341.264H7.063v3.784H5.359zm1.703-8.91v3.528h2.895c.663 0 1.148-.148 1.455-.445.306-.296.46-.761.46-1.394 0-.603-.164-1.035-.49-1.297-.327-.261-.802-.392-1.425-.392H7.063zm12.655-1.296l1.643-.453v8.926a3.879 3.879 0 00.105.934c.04.12.086.25.136.385.05.135.116.274.196.414h-1.734c-.06-.1-.12-.236-.18-.407a6.329 6.329 0 01-.091-.482 4.326 4.326 0 01-1.033.761c-.387.206-.801.31-1.244.31-.522 0-.982-.086-1.379-.257a2.835 2.835 0 01-1.003-.709 2.957 2.957 0 01-.61-1.077 4.34 4.34 0 01-.204-1.35v-.724c0-1.276.337-2.236 1.01-2.88.674-.642 1.654-.964 2.94-.964.493 0 .975.096 1.448.286v-2.713zm0 4.236a2.255 2.255 0 00-.762-.271 4.699 4.699 0 00-.806-.076c-.402 0-.742.056-1.018.166-.276.11-.503.267-.678.468a1.78 1.78 0 00-.377.723 3.547 3.547 0 00-.113.92v.558c0 .281.02.555.06.821.04.267.118.5.234.701.115.202.273.365.475.49.2.126.462.189.784.189.21 0 .419-.035.625-.106.206-.07.405-.163.596-.279a4.116 4.116 0 00.98-.821v-3.483zm3.739-2.472a3 3 0 01.114-.822c.075-.266.193-.502.354-.709.16-.206.372-.371.633-.497a2.14 2.14 0 01.935-.189c.17 0 .364.018.58.053.216.036.405.078.566.128v1.297h-.604c-.311 0-.545.085-.7.256-.156.171-.234.407-.234.709v.618h1.462l-.437 1.357h-1.025v6.241h-1.643v-6.241h-.95v-1.357h.95v-.844z" fill="#FF7063"/><path d="M5.36 21.649V11.17h5.186c.492 0 .93.08 1.311.24.382.162.699.385.95.672.251.286.442.628.573 1.025.13.397.196.837.196 1.32 0 .481-.063.934-.189 1.356a3.168 3.168 0 01-.557 1.093c-.247.307-.56.548-.943.724-.382.176-.829.264-1.341.264H7.063v3.784H5.359zm1.703-8.91v3.527h2.895c.663 0 1.148-.148 1.455-.444.306-.297.46-.762.46-1.395 0-.603-.164-1.035-.49-1.297-.327-.26-.802-.392-1.425-.392H7.063zm12.655-1.297l1.643-.452v8.925a3.877 3.877 0 00.105.935c.04.12.086.248.136.384.05.136.116.274.196.415h-1.734c-.06-.1-.12-.236-.18-.407a6.321 6.321 0 01-.091-.483 4.324 4.324 0 01-1.033.761 2.61 2.61 0 01-1.244.31c-.522 0-.982-.086-1.379-.257a2.833 2.833 0 01-1.003-.708 2.957 2.957 0 01-.61-1.078 4.34 4.34 0 01-.204-1.35v-.723c0-1.277.337-2.236 1.01-2.88.674-.643 1.654-.965 2.94-.965.493 0 .975.096 1.448.287v-2.714zm0 4.236a2.255 2.255 0 00-.762-.271 4.689 4.689 0 00-.806-.075c-.402 0-.742.055-1.018.165a1.744 1.744 0 00-.678.468 1.781 1.781 0 00-.377.724 3.546 3.546 0 00-.113.92v.557c0 .282.02.555.06.822.04.266.118.5.234.7.115.202.273.365.475.49.2.126.462.19.784.19.21 0 .419-.036.625-.106a3.02 3.02 0 00.596-.28 4.116 4.116 0 00.98-.821v-3.483zm3.739-2.472a3 3 0 01.114-.822c.075-.266.193-.502.354-.708a1.75 1.75 0 01.633-.498c.261-.125.573-.188.935-.188.17 0 .364.017.58.052.216.036.405.078.566.129v1.296h-.604c-.311 0-.545.086-.7.256-.156.171-.234.407-.234.709v.618h1.462l-.437 1.357h-1.025v6.242h-1.643v-6.242h-.95V14.05h.95v-.844z" fill="#fff"/></g><defs><clipPath id="clip0_337_4839"><path fill="#fff" transform="translate(0 .5)" d="M0 0h32v32H0z"/></clipPath></defs></svg>