<svg width="20" height="23" fill="none" xmlns="http://www.w3.org/2000/svg"><path d="M6.625 10.155c0 .861.356 1.687.989 2.296.632.608 1.49.95 2.386.95.895 0 1.754-.342 2.386-.95a3.185 3.185 0 00.989-2.296c0-.86-.356-1.686-.989-2.295A3.444 3.444 0 0010 6.91c-.895 0-1.754.342-2.386.95a3.184 3.184 0 00-.989 2.295z" stroke="#272727" stroke-width="1.8" stroke-linecap="round" stroke-linejoin="round"/><path d="M16.364 16.276l-4.773 4.591A2.296 2.296 0 0110 21.5a2.296 2.296 0 01-1.59-.633l-4.775-4.59a8.559 8.559 0 01-2.463-4.433 8.349 8.349 0 01.512-5A8.738 8.738 0 015 2.958 9.257 9.257 0 0110 1.5c1.78 0 3.52.508 5 1.459a8.738 8.738 0 013.315 3.884 8.349 8.349 0 01.512 5.001 8.559 8.559 0 01-2.463 4.432z" stroke="#272727" stroke-width="1.8" stroke-linecap="round" stroke-linejoin="round"/></svg>