<svg width="20" height="20" fill="none" xmlns="http://www.w3.org/2000/svg"><path d="M6.989 12.99l6-6m-5 .5a.5.5 0 11-1 0 .5.5 0 011 0zm5 5a.5.5 0 11-1 0 .5.5 0 011 0zm-10-7.3a2.2 2.2 0 012.2-2.2h1a2.2 2.2 0 001.55-.64l.7-.7a2.2 2.2 0 013.12 0l.7.7c.412.41.969.64 1.55.64h1a2.2 2.2 0 012.2 2.2v1c0 .58.23 1.138.64 1.55l.7.7a2.2 2.2 0 010 3.12l-.7.7a2.2 2.2 0 00-.64 1.55v1a2.2 2.2 0 01-2.2 2.2h-1a2.2 2.2 0 00-1.55.64l-.7.7a2.199 2.199 0 01-3.12 0l-.7-.7a2.2 2.2 0 00-1.55-.64h-1a2.2 2.2 0 01-2.2-2.2v-1a2.2 2.2 0 00-.64-1.55l-.7-.7a2.2 2.2 0 010-3.12l.7-.7a2.2 2.2 0 00.64-1.55v-1z" stroke="#E31E24" stroke-width="1.6" stroke-linecap="round" stroke-linejoin="round"/></svg>