<svg width="20" height="19" fill="none" xmlns="http://www.w3.org/2000/svg"><mask id="a" style="mask-type:alpha" maskUnits="userSpaceOnUse" x="0" y="0" width="20" height="19"><path fill-rule="evenodd" clip-rule="evenodd" d="M17.02 9.24a7.5 7.5 0 11-3.372-6.005l1.632-1.293A9.462 9.462 0 009.523 0a9.5 9.5 0 00-9.5 9.5 9.5 9.5 0 009.5 9.5 9.5 9.5 0 009.345-11.22L17.02 9.24z" fill="#C4C4C4"/></mask><g mask="url(#a)"><path d="M17.017 9.203a7.5 7.5 0 11-3.37-5.968l1.633-1.293A9.462 9.462 0 009.523 0a9.5 9.5 0 00-9.5 9.5 9.5 9.5 0 009.5 9.5 9.5 9.5 0 009.335-11.271l-1.84 1.474z" fill="#24A236"/><path d="M8.427 8.039a8.404 8.404 0 100-16.808 8.404 8.404 0 000 16.808z" fill="#008ACB"/><g filter="url(#filter0_f_320_1764)"><path d="M7.331 27.039a7.308 7.308 0 100-14.616 7.308 7.308 0 000 14.616z" fill="#77F628"/></g><g filter="url(#filter1_f_320_1764)"><path d="M.753 13.154a7.308 7.308 0 100-14.616 7.308 7.308 0 000 14.616z" fill="#19E7E8"/></g><g filter="url(#filter2_f_320_1764)"><path d="M.026 19a5.846 5.846 0 100-11.692A5.846 5.846 0 00.026 19z" fill="#DEFA1B"/></g></g><path fill-rule="evenodd" clip-rule="evenodd" d="M18.072 5.351L9.523 12V9.5l7.5-5.833a9.538 9.538 0 011.05 1.684zM6.023 9.805L9.523 12V9.5l-3.5-2.187v2.492z" fill="#24A236"/><defs><filter id="filter0_f_320_1764" x="-7.977" y="4.423" width="30.617" height="30.615" filterUnits="userSpaceOnUse" color-interpolation-filters="sRGB"><feFlood flood-opacity="0" result="BackgroundImageFix"/><feBlend in="SourceGraphic" in2="BackgroundImageFix" result="shape"/><feGaussianBlur stdDeviation="4" result="effect1_foregroundBlur_320_1764"/></filter><filter id="filter1_f_320_1764" x="-14.555" y="-9.462" width="30.617" height="30.615" filterUnits="userSpaceOnUse" color-interpolation-filters="sRGB"><feFlood flood-opacity="0" result="BackgroundImageFix"/><feBlend in="SourceGraphic" in2="BackgroundImageFix" result="shape"/><feGaussianBlur stdDeviation="4" result="effect1_foregroundBlur_320_1764"/></filter><filter id="filter2_f_320_1764" x="-11.82" y="1.308" width="23.695" height="23.692" filterUnits="userSpaceOnUse" color-interpolation-filters="sRGB"><feFlood flood-opacity="0" result="BackgroundImageFix"/><feBlend in="SourceGraphic" in2="BackgroundImageFix" result="shape"/><feGaussianBlur stdDeviation="3" result="effect1_foregroundBlur_320_1764"/></filter></defs></svg>