<svg width="64" height="64" fill="none" xmlns="http://www.w3.org/2000/svg"><path d="M37.274 63H63V11.548M37.274 63V11.548m0 51.452H1V32.129M37.274 63V32.129m0 30.871h-10.29V39.846h10.29m0 23.154V39.846m0-28.298H63m-25.726 0v20.58M63 11.549v20.58H37.274m0 0H1m36.274 0v7.718M1 32.13v7.718h36.274m-16.98-29.843l9.005 7.718v5.145H1v-5.145l9.004-7.718m10.29 0h-10.29m10.29 0V1h-10.29v9.004m34.988 14.407v-3.86m0 19.296v3.858m-25.726 5.789v3.859" stroke="#4C4C4C" stroke-width="2" stroke-miterlimit="10" stroke-linecap="round" stroke-linejoin="round"/></svg>