<svg width="64" height="64" fill="none" xmlns="http://www.w3.org/2000/svg"><path d="M14.12 44.992H63v7.718H14.12v-7.718zm0 0V6.145A5.145 5.145 0 008.975 1H1m56.855 56.855a5.145 5.145 0 11-10.29 0 5.145 5.145 0 0110.29 0zm-28.299 0a5.145 5.145 0 11-10.29 0 5.145 5.145 0 0110.29 0zm28.299-36.017H21.838v23.154h36.017V21.838zM52.71 3.83H26.982v18.008H52.71V3.83zm-9.005 0h-7.718v7.718h7.718V3.83zm1.287 18.008h-10.29v10.29h10.29v-10.29z" stroke="#4C4C4C" stroke-width="2" stroke-miterlimit="10" stroke-linecap="round" stroke-linejoin="round"/></svg>