<svg width="64" height="64" fill="none" xmlns="http://www.w3.org/2000/svg"><path d="M41.004 1l11.577 11.577M41.004 1v11.577h11.577M41.004 1H11.42v26.138m41.162-14.561v18.42m-6.014 0H63v20.58h-8.993L41.47 62.098a3.859 3.859 0 11-4.961-5.912l2.22-1.864-4.19 3.518a3.859 3.859 0 11-4.962-5.913l4.192-3.517-5.177 4.344a3.859 3.859 0 11-4.961-5.912m5.177-4.344l-5.177 4.344m0 0a3.859 3.859 0 11-4.961-5.912l11.836-9.932h5.145l5.926 5.925a3.858 3.858 0 005.457 0h0a3.859 3.859 0 000-5.457l-6.408-6.302a6.432 6.432 0 00-4.547-1.884H24.153a9.005 9.005 0 00-6.367 2.637l-1.222 1.222H1v20.58h9.905a10.597 10.597 0 009.087 5.146h3.779" stroke="#4C4C4C" stroke-width="2" stroke-miterlimit="10" stroke-linecap="round" stroke-linejoin="round"/></svg>