<svg width="66" height="15" fill="none" xmlns="http://www.w3.org/2000/svg"><path d="M7.206.833L8.88 5.445l4.903.168L9.916 8.63l1.355 4.715L7.206 10.6 3.14 13.346 4.496 8.63.628 5.613l4.903-.168L7.206.833zm17.289 0l1.675 4.612 4.903.168-3.868 3.018 1.355 4.715-4.065-2.746-4.066 2.746 1.356-4.715-3.868-3.018 4.903-.168L24.495.833zm17.297 0l1.675 4.612 4.903.168-3.868 3.018 1.355 4.715-4.065-2.746-4.066 2.746 1.355-4.715-3.867-3.018 4.903-.168L41.792.833zm17.288 0l1.676 4.612 4.903.168L61.79 8.63l1.355 4.715-4.065-2.746-4.066 2.746L56.37 8.63l-3.867-3.018 4.903-.168L59.08.833z" fill="#171717"/></svg>