<svg width="32" height="11" fill="none" xmlns="http://www.w3.org/2000/svg"><path fill-rule="evenodd" clip-rule="evenodd" d="M29.168 10.518s-.23-1.4-.307-1.752h-3.318c-.092.275-.551 1.752-.551 1.752h-2.707l3.839-9.156a1.271 1.271 0 011.346-.84h2l2.1 10h-2.4l-.002-.004zm-1.331-6.441l-.184-.854c-.122.381-.352.976-.336.961 0 0-.826 2.212-1.025 2.792h2.141c-.107-.503-.596-2.899-.596-2.899zm-5.568-1.25a4.334 4.334 0 00-1.927-.382c-1.025 0-1.484.427-1.5.854 0 .474.551.778 1.468 1.236 1.484.7 2.172 1.572 2.157 2.716-.015 2.059-1.774 3.4-4.5 3.4a7.895 7.895 0 01-2.875-.533l.351-2.243.352.168c.751.37 1.58.553 2.417.534a1.347 1.347 0 001.56-.977c0-.442-.336-.763-1.346-1.25-.979-.473-2.279-1.267-2.264-2.7.016-1.938 1.805-3.301 4.36-3.301a6.543 6.543 0 012.325.411l-.352 2.167-.226-.1zm-11.38 7.691l1.622-10h2.585l-1.621 10h-2.586zm-6.225 0L2.657 2.99 2.5 2.379a5.88 5.88 0 011 .633c.941.768 1.746 1.69 2.381 2.726l-.008-.043.05.26.276 1.372L8.733.518h2.738l-4.069 10H4.66h.004z" fill="#1470B0"/><path fill-rule="evenodd" clip-rule="evenodd" d="M3.493 3.012a5.903 5.903 0 00-1-.633l-.147-.554C1.616 1.395.836 1.056.023.816v-.31h3.971a1.043 1.043 0 011.015.825l.86 4.407a10.801 10.801 0 00-2.376-2.726z" fill="#FFB927"/></svg>